<svg width="26" height="25" viewBox="0 0 26 25" fill="none" xmlns="http://www.w3.org/2000/svg">
<path d="M0.632545 8.16292C0.641119 8.13176 0.650154 8.10864 0.657226 8.0934L0.691151 8.0591C0.690939 8.05932 0.692507 8.05774 0.697248 8.05305L0.714985 8.03557L0.776653 7.97504L0.993044 7.76323C1.17543 7.58485 1.42979 7.33628 1.7323 7.04079C2.3373 6.44982 3.1346 5.67142 3.93312 4.89204C5.53217 3.33132 7.13094 1.77176 7.20647 1.69943L7.20651 1.69947L7.21182 1.69423C7.64492 1.26692 8.07416 1.25312 8.48323 1.23998C8.50876 1.23916 8.5342 1.23834 8.55957 1.23742C10.9313 1.24781 13.3981 1.25929 15.8651 1.27078L15.8658 1.27078C18.3358 1.28228 20.806 1.29378 23.1808 1.30417C23.705 1.30777 24.0265 1.5174 24.2432 1.87347C24.4815 2.26518 24.6109 2.87082 24.6057 3.66604C24.6057 3.66616 24.6057 3.66627 24.6057 3.66639L24.5182 13.4639L24.5181 13.4639L24.5182 13.4718C24.5287 14.9789 23.8203 15.8719 23.3832 16.3135L23.3705 16.3263L23.3588 16.3401L16.8427 23.951L16.8255 23.9712L16.8105 23.993C16.7189 24.1262 16.5164 24.2093 16.3274 24.1813C16.2417 24.1685 16.194 24.1372 16.1725 24.1142C16.1582 24.099 16.1308 24.0636 16.1345 23.9676L16.1348 23.9598L16.1348 23.952L16.2192 11.1598C16.2238 10.4636 16.0211 9.86543 15.5752 9.44462C15.1352 9.02939 14.5303 8.85529 13.867 8.85092L1.03518 8.7663C0.839492 8.75968 0.752958 8.70418 0.713794 8.66815C0.669836 8.62771 0.633271 8.56295 0.616441 8.46445C0.599186 8.36347 0.607954 8.25231 0.632545 8.16292ZM0.666359 8.07592C0.667596 8.0739 0.668261 8.073 0.668283 8.07306C0.668305 8.07312 0.667687 8.07413 0.666359 8.07592Z" stroke="#FFA617"/>
</svg>