<svg width="105" height="101" viewBox="0 0 105 101" fill="none" xmlns="http://www.w3.org/2000/svg">
<path d="M1.57568 29.3777L1.60226 29.3599L1.62472 29.3372C2.11244 28.8442 28.2193 3.36571 28.8686 2.7439L28.8687 2.74393L28.872 2.74064C31.1873 0.456329 33.6139 0.3846 35.346 0.333403C35.4739 0.329622 35.5981 0.325953 35.7181 0.321513C45.6346 0.364909 55.9496 0.412931 66.2649 0.460955L66.269 0.460974C76.585 0.509002 86.9012 0.55703 96.819 0.600431C99.6157 0.61897 101.532 1.80988 102.761 3.83C104.004 5.8724 104.556 8.78632 104.534 12.2508C104.534 12.251 104.534 12.2513 104.534 12.2515L104.168 53.1728L104.168 53.1778C104.217 60.112 100.931 64.2692 98.9153 66.3058L98.9074 66.3139L98.9 66.3225L71.6872 98.1081L71.6764 98.1208L71.667 98.1344C70.8415 99.3352 69.2765 99.871 67.9267 99.6706C67.2574 99.5713 66.6635 99.2936 66.2473 98.8505C65.8357 98.4123 65.577 97.7907 65.6087 96.9563L65.6088 96.9563L65.6089 96.9465L65.9612 43.5228C65.978 40.9646 65.2401 38.994 63.8282 37.6617C62.4201 36.3329 60.3873 35.6824 57.9001 35.666L4.28879 35.3125C3.11303 35.2775 2.31339 34.9256 1.7793 34.4343C1.24188 33.9399 0.944913 33.278 0.825079 32.5767C0.704979 31.8738 0.76596 31.1463 0.930544 30.548C1.01268 30.2495 1.11881 29.9898 1.23582 29.7854C1.35493 29.5774 1.47489 29.4449 1.57568 29.3777Z" stroke="#FF8116" stroke-width="0.627979"/>
</svg>