<svg width="69" height="66" viewBox="0 0 69 66" fill="none" xmlns="http://www.w3.org/2000/svg">
<path fill-rule="evenodd" clip-rule="evenodd" d="M25.7672 37.2277C25.7456 40.5035 27.6535 42.1541 30.8514 42.1751L66.0282 42.4071C69.2793 42.502 68.7387 46.1317 67.9189 46.6783C67.5969 47.0038 50.4666 63.7218 50.0401 64.1302C48.3428 65.8049 46.5438 65.7344 45.4071 65.7767C32.392 65.7198 18.3302 65.6507 5.31417 65.5937C1.50314 65.5686 0.0174654 62.3218 0.0476651 57.7421L0.287336 30.8931C0.255173 26.2692 2.44886 23.4919 3.79348 22.1334L21.6478 1.27881C22.8339 -0.446479 26.0889 -0.214973 25.9983 2.17632L25.7672 37.2277Z" fill="#BCBEC0"/>
</svg>