<svg width="178" height="42" viewBox="0 0 178 42" fill="none" xmlns="http://www.w3.org/2000/svg">
<path d="M3.99742 39.133C4.01338 39.5075 3.90978 39.8779 3.69994 40.1967C3.4901 40.5154 3.18361 40.7679 2.81985 40.9217C2.45609 41.0756 2.05168 41.1237 1.6586 41.0599C1.26552 40.9961 0.901723 40.8233 0.613959 40.5637C0.326196 40.3042 0.127617 39.9697 0.0437384 39.6033C-0.0401398 39.2369 -0.00548305 38.8553 0.143254 38.5075C0.291992 38.1598 0.548014 37.8618 0.878421 37.6518C1.20883 37.4418 1.59852 37.3294 1.99742 37.3291C2.51428 37.3287 3.01123 37.5164 3.38409 37.8527C3.75694 38.189 3.97675 38.6478 3.99742 39.133Z" fill="#0F5EBC"/>
<path d="M19.7865 39.1329C19.8024 39.5074 19.6988 39.8778 19.489 40.1966C19.2792 40.5153 18.9727 40.7678 18.6089 40.9216C18.2452 41.0755 17.8407 41.1236 17.4477 41.0598C17.0546 40.996 16.6908 40.8232 16.403 40.5636C16.1153 40.3041 15.9167 39.9696 15.8328 39.6032C15.7489 39.2368 15.7836 38.8552 15.9323 38.5074C16.0811 38.1597 16.3371 37.8617 16.6675 37.6517C16.9979 37.4417 17.3876 37.3293 17.7865 37.329C18.0446 37.3215 18.3017 37.3625 18.5427 37.4495C18.7837 37.5366 19.0038 37.6679 19.1901 37.836C19.3764 38.004 19.5251 38.2053 19.6275 38.428C19.7299 38.6507 19.7839 38.8903 19.7865 39.1329Z" fill="#0F5EBC"/>
<path d="M35.5775 39.1329C35.5935 39.5074 35.4899 39.8778 35.28 40.1966C35.0702 40.5153 34.7637 40.7678 34.3999 40.9216C34.0362 41.0755 33.6318 41.1236 33.2387 41.0598C32.8456 40.996 32.4818 40.8232 32.194 40.5636C31.9063 40.3041 31.7077 39.9696 31.6238 39.6032C31.5399 39.2368 31.5746 38.8552 31.7233 38.5074C31.8721 38.1597 32.1281 37.8617 32.4585 37.6517C32.7889 37.4417 33.1786 37.3293 33.5775 37.329C33.8356 37.3215 34.0927 37.3625 34.3337 37.4495C34.5747 37.5366 34.7948 37.6679 34.9811 37.836C35.1674 38.004 35.3161 38.2053 35.4185 38.428C35.5209 38.6507 35.575 38.8903 35.5775 39.1329Z" fill="#0F5EBC"/>
<path d="M51.3685 39.1329C51.3845 39.5074 51.2809 39.8778 51.071 40.1966C50.8612 40.5153 50.5547 40.7678 50.1909 40.9216C49.8272 41.0755 49.4228 41.1236 49.0297 41.0598C48.6366 40.996 48.2728 40.8232 47.9851 40.5636C47.6973 40.3041 47.4987 39.9696 47.4148 39.6032C47.331 39.2368 47.3656 38.8552 47.5143 38.5074C47.6631 38.1597 47.9191 37.8617 48.2495 37.6517C48.5799 37.4417 48.9696 37.3293 49.3685 37.329C49.6266 37.3215 49.8837 37.3625 50.1247 37.4495C50.3657 37.5366 50.5858 37.6679 50.7721 37.836C50.9584 38.004 51.1071 38.2053 51.2095 38.428C51.3119 38.6507 51.366 38.8903 51.3685 39.1329Z" fill="#0F5EBC"/>
<path d="M67.1576 39.1329C67.1735 39.5074 67.0699 39.8778 66.8601 40.1966C66.6503 40.5153 66.3438 40.7678 65.98 40.9216C65.6162 41.0755 65.2118 41.1236 64.8188 41.0598C64.4257 40.996 64.0619 40.8232 63.7741 40.5636C63.4864 40.3041 63.2878 39.9696 63.2039 39.6032C63.12 39.2368 63.1547 38.8552 63.3034 38.5074C63.4521 38.1597 63.7082 37.8617 64.0386 37.6517C64.369 37.4417 64.7587 37.3293 65.1576 37.329C65.4157 37.3215 65.6728 37.3625 65.9138 37.4495C66.1548 37.5366 66.3749 37.6679 66.5612 37.836C66.7475 38.004 66.8962 38.2053 66.9986 38.428C67.101 38.6507 67.155 38.8903 67.1576 39.1329Z" fill="#0F5EBC"/>
<path d="M82.9466 39.1329C82.9626 39.5074 82.859 39.8778 82.6492 40.1966C82.4393 40.5153 82.1328 40.7678 81.7691 40.9216C81.4053 41.0755 81.0009 41.1236 80.6078 41.0598C80.2147 40.996 79.8509 40.8232 79.5632 40.5636C79.2754 40.3041 79.0768 39.9696 78.993 39.6032C78.9091 39.2368 78.9437 38.8552 79.0925 38.5074C79.2412 38.1597 79.4972 37.8617 79.8276 37.6517C80.158 37.4417 80.5477 37.3293 80.9466 37.329C81.2047 37.3215 81.4618 37.3625 81.7029 37.4495C81.9439 37.5366 82.164 37.6679 82.3502 37.836C82.5365 38.004 82.6852 38.2053 82.7876 38.428C82.89 38.6507 82.9441 38.8903 82.9466 39.1329Z" fill="#0F5EBC"/>
<path d="M3.997 26.6935C4.01497 27.0682 3.91312 27.4395 3.70456 27.7594C3.496 28.0794 3.19029 28.3333 2.82679 28.4886C2.46328 28.6439 2.05863 28.6934 1.66493 28.6307C1.27123 28.568 0.906507 28.3961 0.617729 28.137C0.328951 27.8778 0.129336 27.5434 0.0445876 27.1768C-0.0401608 26.8102 -0.00616299 26.4281 0.142204 26.0798C0.290571 25.7315 0.546514 25.4329 0.877077 25.2224C1.20764 25.012 1.59769 24.8993 1.997 24.8989C2.5122 24.8984 3.00773 25.0848 3.38032 25.4191C3.75291 25.7534 3.97381 26.2099 3.997 26.6935Z" fill="#0F5EBC"/>
<path d="M19.788 26.6934C19.806 27.0681 19.7041 27.4394 19.4956 27.7593C19.287 28.0793 18.9813 28.3332 18.6178 28.4885C18.2543 28.6438 17.8496 28.6933 17.4559 28.6306C17.0622 28.5679 16.6975 28.396 16.4087 28.1369C16.12 27.8777 15.9204 27.5433 15.8356 27.1767C15.7509 26.8101 15.7849 26.428 15.9332 26.0797C16.0816 25.7314 16.3375 25.4328 16.6681 25.2223C16.9987 25.0119 17.3887 24.8992 17.788 24.8988C18.0453 24.8913 18.3016 24.932 18.5419 25.0184C18.7823 25.1049 19.0019 25.2355 19.1881 25.4025C19.3742 25.5695 19.5231 25.7697 19.6261 25.9913C19.7291 26.2129 19.7842 26.4516 19.788 26.6934Z" fill="#0F5EBC"/>
<path d="M35.5771 26.6934C35.595 27.0681 35.4932 27.4394 35.2846 27.7593C35.0761 28.0793 34.7704 28.3332 34.4069 28.4885C34.0434 28.6438 33.6387 28.6933 33.245 28.6306C32.8513 28.5679 32.4866 28.396 32.1978 28.1369C31.909 27.8777 31.7094 27.5433 31.6247 27.1767C31.5399 26.8101 31.5739 26.428 31.7223 26.0797C31.8707 25.7314 32.1266 25.4328 32.4572 25.2223C32.7877 25.0119 33.1778 24.8992 33.5771 24.8988C33.8343 24.8913 34.0906 24.932 34.331 25.0184C34.5714 25.1049 34.791 25.2355 34.9772 25.4025C35.1633 25.5695 35.3122 25.7697 35.4152 25.9913C35.5182 26.2129 35.5732 26.4516 35.5771 26.6934Z" fill="#0F5EBC"/>
<path d="M51.3681 26.6934C51.3861 27.0681 51.2842 27.4394 51.0757 27.7593C50.8671 28.0793 50.5614 28.3332 50.1979 28.4885C49.8344 28.6438 49.4297 28.6933 49.036 28.6306C48.6423 28.5679 48.2776 28.396 47.9888 28.1369C47.7 27.8777 47.5004 27.5433 47.4157 27.1767C47.3309 26.8101 47.3649 26.428 47.5133 26.0797C47.6617 25.7314 47.9176 25.4328 48.2482 25.2223C48.5787 25.0119 48.9688 24.8992 49.3681 24.8988C49.6254 24.8913 49.8816 24.932 50.122 25.0184C50.3624 25.1049 50.582 25.2355 50.7682 25.4025C50.9543 25.5695 51.1032 25.7697 51.2062 25.9913C51.3092 26.2129 51.3642 26.4516 51.3681 26.6934Z" fill="#0F5EBC"/>
<path d="M67.1572 26.6934C67.1751 27.0681 67.0733 27.4394 66.8647 27.7593C66.6562 28.0793 66.3504 28.3332 65.9869 28.4885C65.6234 28.6438 65.2188 28.6933 64.8251 28.6306C64.4314 28.5679 64.0667 28.396 63.7779 28.1369C63.4891 27.8777 63.2895 27.5433 63.2047 27.1767C63.12 26.8101 63.154 26.428 63.3024 26.0797C63.4507 25.7314 63.7067 25.4328 64.0372 25.2223C64.3678 25.0119 64.7578 24.8992 65.1572 24.8988C65.4144 24.8913 65.6707 24.932 65.9111 25.0184C66.1514 25.1049 66.3711 25.2355 66.5572 25.4025C66.7434 25.5695 66.8923 25.7697 66.9953 25.9913C67.0983 26.2129 67.1533 26.4516 67.1572 26.6934Z" fill="#0F5EBC"/>
<path d="M82.9482 26.6934C82.9661 27.0681 82.8643 27.4394 82.6557 27.7593C82.4472 28.0793 82.1415 28.3332 81.778 28.4885C81.4145 28.6438 81.0098 28.6933 80.6161 28.6306C80.2224 28.5679 79.8577 28.396 79.5689 28.1369C79.2801 27.8777 79.0805 27.5433 78.9958 27.1767C78.911 26.8101 78.945 26.428 79.0934 26.0797C79.2417 25.7314 79.4977 25.4328 79.8283 25.2223C80.1588 25.0119 80.5489 24.8992 80.9482 24.8988C81.2054 24.8913 81.4617 24.932 81.7021 25.0184C81.9425 25.1049 82.1621 25.2355 82.3482 25.4025C82.5344 25.5695 82.6833 25.7697 82.7863 25.9913C82.8893 26.2129 82.9443 26.4516 82.9482 26.6934Z" fill="#0F5EBC"/>
<path d="M3.997 14.2535C4.01497 14.6283 3.91312 14.9996 3.70456 15.3195C3.496 15.6394 3.19029 15.8934 2.82679 16.0487C2.46328 16.204 2.05863 16.2535 1.66493 16.1908C1.27123 16.1281 0.906507 15.9561 0.617729 15.697C0.328951 15.4379 0.129336 15.1035 0.0445876 14.7369C-0.0401608 14.3703 -0.00616299 13.9882 0.142204 13.6399C0.290571 13.2916 0.546514 12.993 0.877077 12.7825C1.20764 12.5721 1.59769 12.4594 1.997 12.459C2.5122 12.4585 3.00773 12.6448 3.38032 12.9791C3.75291 13.3134 3.97381 13.77 3.997 14.2535Z" fill="#0F5EBC"/>
<path d="M19.788 14.2539C19.806 14.6287 19.7041 15 19.4956 15.3199C19.287 15.6398 18.9813 15.8938 18.6178 16.0491C18.2543 16.2043 17.8496 16.2538 17.4559 16.1912C17.0622 16.1285 16.6975 15.9565 16.4087 15.6974C16.12 15.4383 15.9204 15.1039 15.8356 14.7373C15.7509 14.3707 15.7849 13.9886 15.9332 13.6403C16.0816 13.292 16.3375 12.9934 16.6681 12.7829C16.9987 12.5725 17.3887 12.4598 17.788 12.4594C18.0453 12.4519 18.3016 12.4926 18.5419 12.579C18.7823 12.6655 19.0019 12.796 19.1881 12.9631C19.3742 13.1301 19.5231 13.3302 19.6261 13.5518C19.7291 13.7734 19.7842 14.0121 19.788 14.2539Z" fill="#0F5EBC"/>
<path d="M35.5771 14.2539C35.595 14.6287 35.4932 15 35.2846 15.3199C35.0761 15.6398 34.7704 15.8938 34.4069 16.0491C34.0434 16.2043 33.6387 16.2538 33.245 16.1912C32.8513 16.1285 32.4866 15.9565 32.1978 15.6974C31.909 15.4383 31.7094 15.1039 31.6247 14.7373C31.5399 14.3707 31.5739 13.9886 31.7223 13.6403C31.8707 13.292 32.1266 12.9934 32.4572 12.7829C32.7877 12.5725 33.1778 12.4598 33.5771 12.4594C33.8343 12.4519 34.0906 12.4926 34.331 12.579C34.5714 12.6655 34.791 12.796 34.9772 12.9631C35.1633 13.1301 35.3122 13.3302 35.4152 13.5518C35.5182 13.7734 35.5732 14.0121 35.5771 14.2539Z" fill="#0F5EBC"/>
<path d="M51.3681 14.2539C51.3861 14.6287 51.2842 15 51.0757 15.3199C50.8671 15.6398 50.5614 15.8938 50.1979 16.0491C49.8344 16.2043 49.4297 16.2538 49.036 16.1912C48.6423 16.1285 48.2776 15.9565 47.9888 15.6974C47.7 15.4383 47.5004 15.1039 47.4157 14.7373C47.3309 14.3707 47.3649 13.9886 47.5133 13.6403C47.6617 13.292 47.9176 12.9934 48.2482 12.7829C48.5787 12.5725 48.9688 12.4598 49.3681 12.4594C49.6254 12.4519 49.8816 12.4926 50.122 12.579C50.3624 12.6655 50.582 12.796 50.7682 12.9631C50.9543 13.1301 51.1032 13.3302 51.2062 13.5518C51.3092 13.7734 51.3642 14.0121 51.3681 14.2539Z" fill="#0F5EBC"/>
<path d="M67.1572 14.2539C67.1751 14.6287 67.0733 15 66.8647 15.3199C66.6562 15.6398 66.3504 15.8938 65.9869 16.0491C65.6234 16.2043 65.2188 16.2538 64.8251 16.1912C64.4314 16.1285 64.0667 15.9565 63.7779 15.6974C63.4891 15.4383 63.2895 15.1039 63.2047 14.7373C63.12 14.3707 63.154 13.9886 63.3024 13.6403C63.4507 13.292 63.7067 12.9934 64.0372 12.7829C64.3678 12.5725 64.7578 12.4598 65.1572 12.4594C65.4144 12.4519 65.6707 12.4926 65.9111 12.579C66.1514 12.6655 66.3711 12.796 66.5572 12.9631C66.7434 13.1301 66.8923 13.3302 66.9953 13.5518C67.0983 13.7734 67.1533 14.0121 67.1572 14.2539Z" fill="#0F5EBC"/>
<path d="M82.9482 14.2539C82.9661 14.6287 82.8643 15 82.6557 15.3199C82.4472 15.6398 82.1415 15.8938 81.778 16.0491C81.4145 16.2043 81.0098 16.2538 80.6161 16.1912C80.2224 16.1285 79.8577 15.9565 79.5689 15.6974C79.2801 15.4383 79.0805 15.1039 78.9958 14.7373C78.911 14.3707 78.945 13.9886 79.0934 13.6403C79.2417 13.292 79.4977 12.9934 79.8283 12.7829C80.1588 12.5725 80.5489 12.4598 80.9482 12.4594C81.2054 12.4519 81.4617 12.4926 81.7021 12.579C81.9425 12.6655 82.1621 12.796 82.3482 12.9631C82.5344 13.1301 82.6833 13.3302 82.7863 13.5518C82.8893 13.7734 82.9443 14.0121 82.9482 14.2539Z" fill="#0F5EBC"/>
<path d="M3.99742 1.80488C4.01338 2.17937 3.90978 2.54978 3.69994 2.86852C3.4901 3.18726 3.18361 3.43978 2.81985 3.59359C2.45609 3.74741 2.05168 3.7955 1.6586 3.73171C1.26552 3.66792 0.901723 3.49517 0.613959 3.23562C0.326196 2.97607 0.127617 2.64158 0.0437384 2.27517C-0.0401398 1.90876 -0.00548305 1.52718 0.143254 1.17942C0.291992 0.831662 0.548014 0.533623 0.878421 0.32363C1.20883 0.113636 1.59852 0.00127711 1.99742 0.000977165C2.51428 0.000588527 3.01123 0.188209 3.38409 0.52451C3.75694 0.860811 3.97675 1.31966 3.99742 1.80488Z" fill="#0F5EBC"/>
<path d="M19.7865 1.80478C19.8024 2.17927 19.6988 2.54968 19.489 2.86842C19.2792 3.18716 18.9727 3.43967 18.6089 3.59349C18.2452 3.74731 17.8407 3.7954 17.4477 3.73161C17.0546 3.66782 16.6908 3.49507 16.403 3.23551C16.1153 2.97596 15.9167 2.64148 15.8328 2.27507C15.7489 1.90866 15.7836 1.52708 15.9323 1.17932C16.0811 0.831559 16.3371 0.533521 16.6675 0.323527C16.9979 0.113534 17.3876 0.00117461 17.7865 0.000874667C18.0446 -0.00664035 18.3017 0.0343329 18.5427 0.121386C18.7837 0.208438 19.0038 0.339822 19.1901 0.507835C19.3764 0.675847 19.5251 0.877099 19.6275 1.09981C19.7299 1.32252 19.7839 1.56219 19.7865 1.80478Z" fill="#0F5EBC"/>
<path d="M35.5775 1.80478C35.5935 2.17927 35.4899 2.54968 35.28 2.86842C35.0702 3.18716 34.7637 3.43967 34.3999 3.59349C34.0362 3.74731 33.6318 3.7954 33.2387 3.73161C32.8456 3.66782 32.4818 3.49507 32.194 3.23551C31.9063 2.97596 31.7077 2.64148 31.6238 2.27507C31.5399 1.90866 31.5746 1.52708 31.7233 1.17932C31.8721 0.831559 32.1281 0.533521 32.4585 0.323527C32.7889 0.113534 33.1786 0.00117461 33.5775 0.000874667C33.8356 -0.00664035 34.0927 0.0343329 34.3337 0.121386C34.5747 0.208438 34.7948 0.339822 34.9811 0.507835C35.1674 0.675847 35.3161 0.877099 35.4185 1.09981C35.5209 1.32252 35.575 1.56219 35.5775 1.80478Z" fill="#0F5EBC"/>
<path d="M51.3685 1.80478C51.3845 2.17927 51.2809 2.54968 51.071 2.86842C50.8612 3.18716 50.5547 3.43967 50.1909 3.59349C49.8272 3.74731 49.4228 3.7954 49.0297 3.73161C48.6366 3.66782 48.2728 3.49507 47.9851 3.23551C47.6973 2.97596 47.4987 2.64148 47.4148 2.27507C47.331 1.90866 47.3656 1.52708 47.5143 1.17932C47.6631 0.831559 47.9191 0.533521 48.2495 0.323527C48.5799 0.113534 48.9696 0.00117461 49.3685 0.000874667C49.6266 -0.00664035 49.8837 0.0343329 50.1247 0.121386C50.3657 0.208438 50.5858 0.339822 50.7721 0.507835C50.9584 0.675847 51.1071 0.877099 51.2095 1.09981C51.3119 1.32252 51.366 1.56219 51.3685 1.80478Z" fill="#0F5EBC"/>
<path d="M67.1576 1.80478C67.1735 2.17927 67.0699 2.54968 66.8601 2.86842C66.6503 3.18716 66.3438 3.43967 65.98 3.59349C65.6162 3.74731 65.2118 3.7954 64.8188 3.73161C64.4257 3.66782 64.0619 3.49507 63.7741 3.23551C63.4864 2.97596 63.2878 2.64148 63.2039 2.27507C63.12 1.90866 63.1547 1.52708 63.3034 1.17932C63.4521 0.831559 63.7082 0.533521 64.0386 0.323527C64.369 0.113534 64.7587 0.00117461 65.1576 0.000874667C65.4157 -0.00664035 65.6728 0.0343329 65.9138 0.121386C66.1548 0.208438 66.3749 0.339822 66.5612 0.507835C66.7475 0.675847 66.8962 0.877099 66.9986 1.09981C67.101 1.32252 67.155 1.56219 67.1576 1.80478Z" fill="#0F5EBC"/>
<path d="M82.9466 1.80478C82.9626 2.17927 82.859 2.54968 82.6492 2.86842C82.4393 3.18716 82.1328 3.43967 81.7691 3.59349C81.4053 3.74731 81.0009 3.7954 80.6078 3.73161C80.2147 3.66782 79.8509 3.49507 79.5632 3.23551C79.2754 2.97596 79.0768 2.64148 78.993 2.27507C78.9091 1.90866 78.9437 1.52708 79.0925 1.17932C79.2412 0.831559 79.4972 0.533521 79.8276 0.323527C80.158 0.113534 80.5477 0.00117461 80.9466 0.000874667C81.2047 -0.00664035 81.4618 0.0343329 81.7029 0.121386C81.9439 0.208438 82.164 0.339822 82.3502 0.507835C82.5365 0.675847 82.6852 0.877099 82.7876 1.09981C82.89 1.32252 82.9441 1.56219 82.9466 1.80478Z" fill="#0F5EBC"/>
<path d="M98.9271 39.7623C98.9431 40.1368 98.8395 40.5072 98.6296 40.826C98.4198 41.1447 98.1133 41.3972 97.7495 41.551C97.3858 41.7048 96.9814 41.7529 96.5883 41.6892C96.1952 41.6254 95.8314 41.4526 95.5436 41.193C95.2559 40.9335 95.0573 40.599 94.9734 40.2326C94.8895 39.8662 94.9242 39.4846 95.0729 39.1368C95.2217 38.7891 95.4777 38.491 95.8081 38.281C96.1385 38.0711 96.5282 37.9587 96.9271 37.9584C97.1852 37.9509 97.4423 37.9919 97.6833 38.0789C97.9243 38.166 98.1444 38.2973 98.3307 38.4654C98.517 38.6334 98.6657 38.8346 98.7681 39.0573C98.8705 39.28 98.9246 39.5197 98.9271 39.7623Z" fill="#0F5EBC"/>
<path d="M114.728 39.7623C114.744 40.1368 114.64 40.5072 114.43 40.826C114.221 41.1447 113.914 41.3972 113.55 41.551C113.187 41.7048 112.782 41.7529 112.389 41.6892C111.996 41.6254 111.632 41.4526 111.344 41.193C111.057 40.9335 110.858 40.599 110.774 40.2326C110.69 39.8662 110.725 39.4846 110.874 39.1368C111.022 38.7891 111.278 38.491 111.609 38.281C111.939 38.0711 112.329 37.9587 112.728 37.9584C112.986 37.9509 113.243 37.9919 113.484 38.0789C113.725 38.166 113.945 38.2973 114.132 38.4654C114.318 38.6334 114.466 38.8346 114.569 39.0573C114.671 39.28 114.725 39.5197 114.728 39.7623Z" fill="#0F5EBC"/>
<path d="M130.517 39.7623C130.533 40.1368 130.429 40.5072 130.219 40.826C130.01 41.1447 129.703 41.3972 129.339 41.551C128.976 41.7048 128.571 41.7529 128.178 41.6892C127.785 41.6254 127.421 41.4526 127.133 41.193C126.846 40.9335 126.647 40.599 126.563 40.2326C126.479 39.8662 126.514 39.4846 126.663 39.1368C126.812 38.7891 127.068 38.491 127.398 38.281C127.728 38.0711 128.118 37.9587 128.517 37.9584C128.775 37.9509 129.032 37.9919 129.273 38.0789C129.514 38.166 129.734 38.2973 129.921 38.4654C130.107 38.6334 130.256 38.8346 130.358 39.0573C130.46 39.28 130.514 39.5197 130.517 39.7623Z" fill="#0F5EBC"/>
<path d="M146.308 39.7623C146.324 40.1368 146.22 40.5072 146.01 40.826C145.801 41.1447 145.494 41.3972 145.13 41.551C144.767 41.7048 144.362 41.7529 143.969 41.6892C143.576 41.6254 143.212 41.4526 142.925 41.193C142.637 40.9335 142.438 40.599 142.354 40.2326C142.27 39.8662 142.305 39.4846 142.454 39.1368C142.603 38.7891 142.859 38.491 143.189 38.281C143.519 38.0711 143.909 37.9587 144.308 37.9584C144.566 37.9509 144.823 37.9919 145.064 38.0789C145.305 38.166 145.525 38.2973 145.712 38.4654C145.898 38.6334 146.047 38.8346 146.149 39.0573C146.251 39.28 146.305 39.5197 146.308 39.7623Z" fill="#0F5EBC"/>
<path d="M162.097 39.7623C162.113 40.1368 162.009 40.5072 161.8 40.826C161.59 41.1447 161.283 41.3972 160.919 41.551C160.556 41.7048 160.151 41.7529 159.758 41.6892C159.365 41.6254 159.001 41.4526 158.714 41.193C158.426 40.9335 158.227 40.599 158.143 40.2326C158.059 39.8662 158.094 39.4846 158.243 39.1368C158.392 38.7891 158.648 38.491 158.978 38.281C159.308 38.0711 159.698 37.9587 160.097 37.9584C160.355 37.9509 160.612 37.9919 160.853 38.0789C161.094 38.166 161.314 38.2973 161.501 38.4654C161.687 38.6334 161.836 38.8346 161.938 39.0573C162.04 39.28 162.094 39.5197 162.097 39.7623Z" fill="#0F5EBC"/>
<path d="M177.888 39.7623C177.904 40.1368 177.8 40.5072 177.591 40.826C177.381 41.1447 177.074 41.3972 176.71 41.551C176.347 41.7048 175.942 41.7529 175.549 41.6892C175.156 41.6254 174.792 41.4526 174.505 41.193C174.217 40.9335 174.018 40.599 173.934 40.2326C173.85 39.8662 173.885 39.4846 174.034 39.1368C174.183 38.7891 174.439 38.491 174.769 38.281C175.099 38.0711 175.489 37.9587 175.888 37.9584C176.146 37.9509 176.403 37.9919 176.644 38.0789C176.885 38.166 177.105 38.2973 177.292 38.4654C177.478 38.6334 177.627 38.8346 177.729 39.0573C177.831 39.28 177.886 39.5197 177.888 39.7623Z" fill="#0F5EBC"/>
<path d="M98.9267 27.3042C98.9447 27.679 98.8428 28.0503 98.6342 28.3702C98.4257 28.6901 98.12 28.9441 97.7565 29.0993C97.393 29.2546 96.9883 29.3041 96.5946 29.2414C96.2009 29.1788 95.8362 29.0068 95.5474 28.7477C95.2586 28.4886 95.059 28.1542 94.9743 27.7876C94.8895 27.4209 94.9235 27.0389 95.0719 26.6906C95.2203 26.3423 95.4762 26.0436 95.8068 25.8332C96.1373 25.6227 96.5274 25.51 96.9267 25.5097C97.184 25.5022 97.4402 25.5428 97.6806 25.6293C97.921 25.7158 98.1406 25.8463 98.3268 26.0133C98.5129 26.1803 98.6618 26.3805 98.7648 26.6021C98.8678 26.8237 98.9228 27.0624 98.9267 27.3042Z" fill="#0F5EBC"/>
<path d="M114.727 27.3038C114.745 27.6786 114.644 28.0499 114.435 28.3698C114.226 28.6897 113.921 28.9437 113.557 29.0989C113.194 29.2542 112.789 29.3037 112.395 29.241C112.002 29.1784 111.637 29.0064 111.348 28.7473C111.059 28.4882 110.86 28.1538 110.775 27.7872C110.69 27.4205 110.724 27.0385 110.873 26.6902C111.021 26.3419 111.277 26.0433 111.608 25.8328C111.938 25.6223 112.328 25.5097 112.727 25.5093C113.243 25.5088 113.738 25.6951 114.111 26.0294C114.483 26.3637 114.704 26.8202 114.727 27.3038Z" fill="#0F5EBC"/>
<path d="M130.517 27.3038C130.535 27.6786 130.433 28.0499 130.224 28.3698C130.016 28.6897 129.71 28.9437 129.346 29.0989C128.983 29.2542 128.578 29.3037 128.184 29.241C127.791 29.1784 127.426 29.0064 127.137 28.7473C126.848 28.4882 126.649 28.1538 126.564 27.7872C126.479 27.4205 126.513 27.0385 126.662 26.6902C126.81 26.3419 127.066 26.0433 127.397 25.8328C127.727 25.6223 128.117 25.5097 128.517 25.5093C129.032 25.5088 129.527 25.6951 129.9 26.0294C130.272 26.3637 130.493 26.8202 130.517 27.3038Z" fill="#0F5EBC"/>
<path d="M146.308 27.3038C146.326 27.6786 146.224 28.0499 146.015 28.3698C145.807 28.6897 145.501 28.9437 145.137 29.0989C144.774 29.2542 144.369 29.3037 143.975 29.241C143.582 29.1784 143.217 29.0064 142.928 28.7473C142.639 28.4882 142.44 28.1538 142.355 27.7872C142.27 27.4205 142.304 27.0385 142.453 26.6902C142.601 26.3419 142.857 26.0433 143.188 25.8328C143.518 25.6223 143.908 25.5097 144.308 25.5093C144.823 25.5088 145.318 25.6951 145.691 26.0294C146.063 26.3637 146.284 26.8202 146.308 27.3038Z" fill="#0F5EBC"/>
<path d="M162.099 27.3038C162.117 27.6786 162.015 28.0499 161.806 28.3698C161.598 28.6897 161.292 28.9437 160.928 29.0989C160.565 29.2542 160.16 29.3037 159.766 29.241C159.373 29.1784 159.008 29.0064 158.719 28.7473C158.431 28.4882 158.231 28.1538 158.146 27.7872C158.061 27.4205 158.095 27.0385 158.244 26.6902C158.392 26.3419 158.648 26.0433 158.979 25.8328C159.309 25.6223 159.699 25.5097 160.099 25.5093C160.614 25.5088 161.109 25.6951 161.482 26.0294C161.854 26.3637 162.075 26.8202 162.099 27.3038Z" fill="#0F5EBC"/>
<path d="M177.888 27.3038C177.906 27.6786 177.804 28.0499 177.595 28.3698C177.387 28.6897 177.081 28.9437 176.717 29.0989C176.354 29.2542 175.949 29.3037 175.556 29.241C175.162 29.1784 174.797 29.0064 174.508 28.7473C174.22 28.4882 174.02 28.1538 173.935 27.7872C173.85 27.4205 173.884 27.0385 174.033 26.6902C174.181 26.3419 174.437 26.0433 174.768 25.8328C175.098 25.6223 175.488 25.5097 175.888 25.5093C176.403 25.5088 176.898 25.6951 177.271 26.0294C177.644 26.3637 177.864 26.8202 177.888 27.3038Z" fill="#0F5EBC"/>
<path d="M98.9267 14.8643C98.9447 15.239 98.8428 15.6103 98.6342 15.9302C98.4257 16.2502 98.12 16.5041 97.7565 16.6594C97.393 16.8147 96.9883 16.8642 96.5946 16.8015C96.2009 16.7388 95.8362 16.5669 95.5474 16.3077C95.2586 16.0486 95.059 15.7142 94.9743 15.3476C94.8895 14.981 94.9235 14.5989 95.0719 14.2506C95.2203 13.9023 95.4762 13.6037 95.8068 13.3932C96.1373 13.1828 96.5274 13.0701 96.9267 13.0697C97.184 13.0622 97.4402 13.1029 97.6806 13.1893C97.921 13.2758 98.1406 13.4064 98.3268 13.5734C98.5129 13.7404 98.6618 13.9405 98.7648 14.1622C98.8678 14.3838 98.9228 14.6225 98.9267 14.8643Z" fill="#0F5EBC"/>
<path d="M114.727 14.8644C114.745 15.2391 114.644 15.6104 114.435 15.9303C114.226 16.2502 113.921 16.5042 113.557 16.6595C113.194 16.8148 112.789 16.8643 112.395 16.8016C112.002 16.7389 111.637 16.567 111.348 16.3078C111.059 16.0487 110.86 15.7143 110.775 15.3477C110.69 14.9811 110.724 14.599 110.873 14.2507C111.021 13.9024 111.277 13.6038 111.608 13.3933C111.938 13.1829 112.328 13.0702 112.727 13.0698C113.243 13.0693 113.738 13.2557 114.111 13.59C114.483 13.9243 114.704 14.3808 114.727 14.8644Z" fill="#0F5EBC"/>
<path d="M130.517 14.8644C130.535 15.2391 130.433 15.6104 130.224 15.9303C130.016 16.2502 129.71 16.5042 129.346 16.6595C128.983 16.8148 128.578 16.8643 128.184 16.8016C127.791 16.7389 127.426 16.567 127.137 16.3078C126.848 16.0487 126.649 15.7143 126.564 15.3477C126.479 14.9811 126.513 14.599 126.662 14.2507C126.81 13.9024 127.066 13.6038 127.397 13.3933C127.727 13.1829 128.117 13.0702 128.517 13.0698C129.032 13.0693 129.527 13.2557 129.9 13.59C130.272 13.9243 130.493 14.3808 130.517 14.8644Z" fill="#0F5EBC"/>
<path d="M146.308 14.8644C146.326 15.2391 146.224 15.6104 146.015 15.9303C145.807 16.2502 145.501 16.5042 145.137 16.6595C144.774 16.8148 144.369 16.8643 143.975 16.8016C143.582 16.7389 143.217 16.567 142.928 16.3078C142.639 16.0487 142.44 15.7143 142.355 15.3477C142.27 14.9811 142.304 14.599 142.453 14.2507C142.601 13.9024 142.857 13.6038 143.188 13.3933C143.518 13.1829 143.908 13.0702 144.308 13.0698C144.823 13.0693 145.318 13.2557 145.691 13.59C146.063 13.9243 146.284 14.3808 146.308 14.8644Z" fill="#0F5EBC"/>
<path d="M162.099 14.8644C162.117 15.2391 162.015 15.6104 161.806 15.9303C161.598 16.2502 161.292 16.5042 160.928 16.6595C160.565 16.8148 160.16 16.8643 159.766 16.8016C159.373 16.7389 159.008 16.567 158.719 16.3078C158.431 16.0487 158.231 15.7143 158.146 15.3477C158.061 14.9811 158.095 14.599 158.244 14.2507C158.392 13.9024 158.648 13.6038 158.979 13.3933C159.309 13.1829 159.699 13.0702 160.099 13.0698C160.614 13.0693 161.109 13.2557 161.482 13.59C161.854 13.9243 162.075 14.3808 162.099 14.8644Z" fill="#0F5EBC"/>
<path d="M177.888 14.8644C177.906 15.2391 177.804 15.6104 177.595 15.9303C177.387 16.2502 177.081 16.5042 176.717 16.6595C176.354 16.8148 175.949 16.8643 175.556 16.8016C175.162 16.7389 174.797 16.567 174.508 16.3078C174.22 16.0487 174.02 15.7143 173.935 15.3477C173.85 14.9811 173.884 14.599 174.033 14.2507C174.181 13.9024 174.437 13.6038 174.768 13.3933C175.098 13.1829 175.488 13.0702 175.888 13.0698C176.403 13.0693 176.898 13.2557 177.271 13.59C177.644 13.9243 177.864 14.3808 177.888 14.8644Z" fill="#0F5EBC"/>
<path d="M98.9271 2.41565C98.9431 2.79014 98.8395 3.16055 98.6296 3.47929C98.4198 3.79803 98.1133 4.05051 97.7495 4.20433C97.3858 4.35815 96.9814 4.40627 96.5883 4.34248C96.1952 4.27868 95.8314 4.10591 95.5436 3.84635C95.2559 3.5868 95.0573 3.25232 94.9734 2.88591C94.8895 2.5195 94.9242 2.13792 95.0729 1.79016C95.2217 1.4424 95.4777 1.14436 95.8081 0.934367C96.1385 0.724374 96.5282 0.612014 96.9271 0.611715C97.1852 0.604199 97.4423 0.645173 97.6833 0.732225C97.9243 0.819278 98.1444 0.950662 98.3307 1.11867C98.517 1.28669 98.6657 1.48794 98.7681 1.71065C98.8705 1.93336 98.9246 2.17306 98.9271 2.41565Z" fill="#0F5EBC"/>
<path d="M114.728 2.41565C114.744 2.79014 114.64 3.16055 114.43 3.47929C114.221 3.79803 113.914 4.05051 113.55 4.20433C113.187 4.35815 112.782 4.40627 112.389 4.34248C111.996 4.27868 111.632 4.10591 111.344 3.84635C111.057 3.5868 110.858 3.25232 110.774 2.88591C110.69 2.5195 110.725 2.13792 110.874 1.79016C111.022 1.4424 111.278 1.14436 111.609 0.934367C111.939 0.724374 112.329 0.612014 112.728 0.611715C112.986 0.604199 113.243 0.645173 113.484 0.732225C113.725 0.819278 113.945 0.950662 114.132 1.11867C114.318 1.28669 114.466 1.48794 114.569 1.71065C114.671 1.93336 114.725 2.17306 114.728 2.41565Z" fill="#0F5EBC"/>
<path d="M130.517 2.41565C130.533 2.79014 130.429 3.16055 130.219 3.47929C130.01 3.79803 129.703 4.05051 129.339 4.20433C128.976 4.35815 128.571 4.40627 128.178 4.34248C127.785 4.27868 127.421 4.10591 127.133 3.84635C126.846 3.5868 126.647 3.25232 126.563 2.88591C126.479 2.5195 126.514 2.13792 126.663 1.79016C126.812 1.4424 127.068 1.14436 127.398 0.934367C127.728 0.724374 128.118 0.612014 128.517 0.611715C128.775 0.604199 129.032 0.645173 129.273 0.732225C129.514 0.819278 129.734 0.950662 129.921 1.11867C130.107 1.28669 130.256 1.48794 130.358 1.71065C130.46 1.93336 130.514 2.17306 130.517 2.41565Z" fill="#0F5EBC"/>
<path d="M146.308 2.41565C146.324 2.79014 146.22 3.16055 146.01 3.47929C145.801 3.79803 145.494 4.05051 145.13 4.20433C144.767 4.35815 144.362 4.40627 143.969 4.34248C143.576 4.27868 143.212 4.10591 142.925 3.84635C142.637 3.5868 142.438 3.25232 142.354 2.88591C142.27 2.5195 142.305 2.13792 142.454 1.79016C142.603 1.4424 142.859 1.14436 143.189 0.934367C143.519 0.724374 143.909 0.612014 144.308 0.611715C144.566 0.604199 144.823 0.645173 145.064 0.732225C145.305 0.819278 145.525 0.950662 145.712 1.11867C145.898 1.28669 146.047 1.48794 146.149 1.71065C146.251 1.93336 146.305 2.17306 146.308 2.41565Z" fill="#0F5EBC"/>
<path d="M162.097 2.41565C162.113 2.79014 162.009 3.16055 161.8 3.47929C161.59 3.79803 161.283 4.05051 160.919 4.20433C160.556 4.35815 160.151 4.40627 159.758 4.34248C159.365 4.27868 159.001 4.10591 158.714 3.84635C158.426 3.5868 158.227 3.25232 158.143 2.88591C158.059 2.5195 158.094 2.13792 158.243 1.79016C158.392 1.4424 158.648 1.14436 158.978 0.934367C159.308 0.724374 159.698 0.612014 160.097 0.611715C160.355 0.604199 160.612 0.645173 160.853 0.732225C161.094 0.819278 161.314 0.950662 161.501 1.11867C161.687 1.28669 161.836 1.48794 161.938 1.71065C162.04 1.93336 162.094 2.17306 162.097 2.41565Z" fill="#0F5EBC"/>
<path d="M177.888 2.41565C177.904 2.79014 177.8 3.16055 177.591 3.47929C177.381 3.79803 177.074 4.05051 176.71 4.20433C176.347 4.35815 175.942 4.40627 175.549 4.34248C175.156 4.27868 174.792 4.10591 174.505 3.84635C174.217 3.5868 174.018 3.25232 173.934 2.88591C173.85 2.5195 173.885 2.13792 174.034 1.79016C174.183 1.4424 174.439 1.14436 174.769 0.934367C175.099 0.724374 175.489 0.612014 175.888 0.611715C176.146 0.604199 176.403 0.645173 176.644 0.732225C176.885 0.819278 177.105 0.950662 177.292 1.11867C177.478 1.28669 177.627 1.48794 177.729 1.71065C177.831 1.93336 177.886 2.17306 177.888 2.41565Z" fill="#0F5EBC"/>
</svg>