<svg width="337" height="336" viewBox="0 0 337 336" fill="none" xmlns="http://www.w3.org/2000/svg">
<path fill-rule="evenodd" clip-rule="evenodd" d="M151.465 1.5229L145.106 2.31738L145.538 4.85097C145.776 6.24355 146.207 9.76315 146.495 12.6717L147.019 17.9596L154.283 17.2186C160.302 16.6043 161.499 16.2537 161.262 15.1768C161.103 14.4611 160.63 13.9328 160.211 14.0026C159.791 14.0724 157.397 14.3824 154.891 14.6916C150.457 15.2377 150.325 15.1971 149.937 13.1634C149.418 10.4529 149.722 10.2241 153.827 10.2241C156.706 10.2241 157.206 9.992 156.895 8.80149C156.595 7.65561 155.819 7.43487 152.914 7.66616C149.753 7.91692 149.305 7.75137 149.305 6.33526C149.305 4.31212 150.78 3.73187 155.922 3.73187C159.266 3.73187 159.926 3.49653 159.709 2.37906C159.369 0.621291 158.99 0.581526 151.465 1.5229ZM178.899 2.68419C178.886 3.92989 178.611 7.59718 178.285 10.8327L177.693 16.7163L181.958 16.8875C190.521 17.2316 191.736 17.0093 193.689 14.7378C194.914 13.3144 195.555 11.5298 195.555 9.54809C195.555 3.95586 192.766 1.97979 183.384 0.922367C178.925 0.420032 178.921 0.420843 178.899 2.68419ZM190.506 4.99542C194.746 7.9648 191.497 15.7831 186.444 14.7719C185.095 14.5025 183.49 14.2817 182.877 14.2817C182.104 14.2817 181.765 13.2235 181.773 10.8327C181.792 4.79092 182.382 3.73187 185.732 3.73187C187.367 3.73187 189.514 4.30076 190.506 4.99542ZM203.033 4.1774C203.278 4.42248 202.648 7.88852 201.633 11.8796L199.787 19.1355L203.148 20.0062C204.997 20.4859 207.787 21.2179 209.349 21.6325C213.204 22.6575 214.218 22.5901 214.218 21.3087C214.218 20.6595 212.501 19.8334 209.958 19.2596C204.415 18.0099 203.627 17.4572 204.212 15.2255C204.625 13.6406 205.04 13.4653 207.224 13.9514C211.341 14.8685 212.111 14.7638 212.425 13.2462C212.589 12.4534 212.42 11.8885 212.05 11.99C211.681 12.0922 209.978 11.8967 208.267 11.5558C205.949 11.0941 205.277 10.6226 205.63 9.70228C205.89 9.02384 206.104 8.16606 206.104 7.796C206.104 7.11594 213.986 8.67164 215.604 9.67144C216.087 9.97009 216.703 9.63898 216.973 8.93539C217.663 7.13623 217.583 5.99685 216.799 6.48133C216.434 6.70693 213.422 6.18675 210.105 5.32572C203.773 3.68156 202.297 3.44135 203.033 4.1774ZM127.396 5.89135C124.942 6.55193 122.686 7.33993 122.383 7.64344C122.082 7.94695 122.633 11.5047 123.608 15.5485L125.382 22.9026L130.649 21.5303C137.804 19.667 138.398 19.3635 139.458 17.0393C141.56 12.4241 139.64 6.91631 135.414 5.44258C132.421 4.39895 133.081 4.36243 127.396 5.89135ZM135.649 9.13259C137.64 10.9342 137.575 15.2531 135.529 17.105C134.647 17.9036 132.579 18.5991 130.933 18.651C128.003 18.7435 127.917 18.6591 126.872 14.6875C125.434 9.22186 125.486 8.76903 127.599 8.36245C131.574 7.59637 134.233 7.85119 135.649 9.13259ZM107.04 12.9695C105.188 13.8273 105.067 14.3239 104.795 22.1941C104.612 27.5072 104.807 30.5123 105.337 30.5123C107.532 30.5123 108.426 29.523 108.12 27.4333C107.83 25.4565 108.18 25.0856 111.515 23.8505C115.063 22.535 115.297 22.5398 116.648 23.9633C117.709 25.0791 118.531 25.2779 119.918 24.7537C121.685 24.085 121.555 23.8626 117.078 19.9007C114.496 17.6171 111.623 14.9196 110.692 13.906C109.251 12.3389 108.705 12.1994 107.04 12.9695ZM236.451 14.091C235.96 14.4189 235.136 15.4885 234.621 16.4672C233.18 19.2053 234.778 21.6609 240.216 25.0604C243.57 27.1566 244.868 28.425 244.538 29.2844C243.476 32.0526 236.809 29.9272 233.826 25.8687C232.314 23.8131 232.053 23.7271 230.87 24.8925C229.682 26.0619 229.764 26.3638 231.835 28.4575C235.856 32.5216 243.555 35.0041 246.35 33.1376C246.841 32.8097 247.679 31.7125 248.213 30.6997C249.618 28.0323 247.888 24.9915 243.516 22.4416C239.211 19.9316 237.628 17.8103 239.286 16.7764C241.014 15.6978 244.724 17.3452 247.381 20.3731C249.574 22.8701 249.88 22.9837 251.446 21.8874C253.126 20.7098 253.119 20.6831 250.515 18.4157C245.569 14.1064 239.309 12.1823 236.451 14.091ZM110.981 21.3169C108.185 22.8693 107.922 22.6705 107.922 18.9991V15.6013L110.372 17.9482L112.821 20.2951L110.981 21.3169ZM88.0638 22.0091C85.8624 23.1874 80.3391 26.4287 79.6373 26.9545C79.4766 27.0746 80.0689 28.1978 80.9534 29.4508C81.837 30.7046 83.6513 33.7844 84.9845 36.2952L87.4082 40.8617L92.981 37.5093C98.884 33.9596 100.465 31.6151 99.5137 27.8245C98.1586 22.4254 92.5793 19.5916 88.0638 22.0091ZM261.638 23.5883C260.073 24.7723 260.716 25.2422 263.442 24.9079C263.962 24.8446 265.173 25.8963 266.135 27.2467C267.884 29.704 270.332 30.367 272.524 28.9785C273.291 28.4916 273.352 28.1126 272.727 27.7255C272.233 27.4204 271.514 27.3652 271.128 27.603C270.744 27.8407 269.274 26.7671 267.863 25.2162C265.028 22.1 263.971 21.8241 261.638 23.5883ZM95.3041 26.6413C97.3967 29.6301 96.8685 31.8692 93.5344 34.1349C91.8685 35.267 90.1199 36.193 89.6485 36.193C89.1763 36.193 87.6354 34.1828 86.2243 31.7255L83.6586 27.2572L87.4739 25.3153C91.6146 23.2077 93.0719 23.4552 95.3041 26.6413ZM261.956 29.5457C261.807 29.9069 258.684 31.9795 255.013 34.1512C248.757 37.8534 248.441 38.1698 249.949 39.2256C251.336 40.1979 251.731 40.1784 252.825 39.0844C254.48 37.4297 254.572 37.4452 258.228 39.9796C260.918 41.8436 261.282 42.4531 260.857 44.3862C260.482 46.0977 260.739 46.8305 261.944 47.4756C263.418 48.2644 263.591 47.8765 264.545 41.6481C265.107 37.9783 265.861 34.1828 266.219 33.2139C266.73 31.8326 266.449 31.1753 264.915 30.1706C262.683 28.7074 262.332 28.6336 261.956 29.5457ZM70.6094 33.338C69.7858 34.3297 70.3384 35.5227 73.7553 40.1329C76.0354 43.2078 77.9 46.1439 77.9 46.6576C77.9 47.2565 78.6287 47.1137 79.9302 46.2616L81.9595 44.9315L79.6997 42.3565C78.4558 40.9404 76.3559 38.0749 75.0325 35.9885C72.3694 31.7896 72.0521 31.5997 70.6094 33.338ZM262.427 35.9901C262.124 37.6643 261.794 39.1339 261.693 39.2565C261.592 39.379 260.637 38.7452 259.57 37.8477L257.629 36.2149L259.657 34.5991C262.551 32.2936 263.049 32.5443 262.427 35.9901ZM150.927 39.108C136.067 41.2618 117.691 47.7881 104.434 55.6193C72.3231 74.5888 49.941 106.441 42.4768 143.793C40.6382 152.991 40.4126 179.571 42.0946 188.76C52.0215 242.993 92.8374 284.146 147.276 294.812C157.487 296.813 182.478 296.815 192.715 294.817C217.27 290.025 240.69 278.22 258.331 261.743C270.016 250.828 279.175 238.292 286.453 223.25C291.659 212.488 294.414 204.368 297.117 191.822C299.523 180.651 299.747 155.748 297.541 144.532C287.886 95.4304 253.853 57.4607 206.678 43.1591C189.936 38.0838 168.659 36.5379 150.927 39.108ZM60.7678 42.01C54.8907 44.8073 51.8957 50.6463 54.8323 53.5832C56.6093 55.3596 57.5619 55.2046 61.9468 52.4235C67.4076 48.9599 69.4645 49.287 67.3273 53.2797C66.2659 55.2631 61.8989 57.5532 60.328 56.951C59.4054 56.5964 59.2593 56.9088 59.691 58.312C60.4959 60.9332 60.4562 60.93 64.2731 58.6926C70.4471 55.074 72.4992 51.3685 70.2402 47.9203C68.5387 45.3227 66.9207 45.416 62.4831 48.3659C60.4748 49.7008 58.3968 50.7948 57.8653 50.7972C54.4152 50.8094 58.0925 45.3405 62.135 44.4478C64.1189 44.0088 64.5133 43.5811 64.1506 42.2583C63.7124 40.6588 63.6207 40.6515 60.7678 42.01ZM272.457 42.3273C267.806 44.852 267.143 50.7274 271.013 55.1356C275.503 60.2499 280.469 60.8975 284.475 56.891C288.633 52.7327 285.932 44.899 279.398 42.1691C276.116 40.7976 275.239 40.8179 272.457 42.3273ZM189.064 44.6791C235.396 51.7264 275.361 86.6107 288.752 131.694C293.944 149.171 295.216 170.223 292.159 188.071C283.2 240.386 241.303 281.549 188.589 289.827C177.863 291.511 154.807 291.069 145.653 289.005C118.149 282.801 95.2497 269.515 77.2841 249.341C61.2822 231.37 49.937 206.731 47.0435 183.665C45.7606 173.436 46.4471 150.806 48.2922 142.503C51.8535 126.473 59.8923 107.977 68.473 96.0667C77.3604 83.7306 89.8489 71.6105 101.962 63.5625C115.064 54.8581 134.689 47.19 150.116 44.7465C159.455 43.2671 179.555 43.2322 189.064 44.6791ZM281.809 46.8857C283.962 49.4809 283.374 54.0709 280.698 55.5658C274.736 58.8971 268.246 49.9833 273.523 45.7106C275.875 43.8059 279.704 44.3488 281.809 46.8857ZM151.333 49.5101C125.473 53.8388 104.694 64.555 85.9476 83.2315C72.3799 96.7491 63.4316 110.887 57.3833 128.363C52.5213 142.41 51.529 149.001 51.529 167.255C51.529 185.322 52.3655 190.953 57.2129 205.526C68.6896 240.034 96.7524 268.153 131.453 279.917C146.091 284.88 151.773 285.738 169.996 285.738C184.037 285.738 187.363 285.483 194.678 283.845C236.661 274.445 270.054 244.412 283.157 204.269C287.638 190.537 288.45 184.869 288.457 167.255C288.462 153.197 288.209 149.892 286.57 142.569C279.57 111.298 261.437 84.9211 234.957 67.4952C222.873 59.543 208.574 53.5799 193.933 50.3866C185.595 48.5679 160.096 48.0437 151.333 49.5101ZM182.401 50.8532C230.786 56.1598 271.057 91.0741 283.247 138.286C297.12 192.008 270.648 248.608 220.36 272.747C203.947 280.626 189.464 283.913 170.807 283.996C146.035 284.106 126.036 278.182 105.298 264.592C96.4709 258.808 81.6285 244.784 75.7149 236.64C64.0654 220.599 56.6717 202.131 53.947 182.268C49.9378 153.049 57.9513 122.045 75.7611 97.8691C80.0527 92.0439 92.3797 79.311 97.671 75.238C122.309 56.2734 152.528 47.5771 182.401 50.8532ZM41.2118 61.5386C38.6299 64.3197 36.5308 66.7851 36.547 67.0164C36.5624 67.2477 39.1151 69.4453 42.218 71.9002C45.3216 74.355 47.8646 76.6939 47.8695 77.098C47.8735 77.5022 48.6128 77.167 49.511 76.3538C51.1363 74.8834 51.1314 74.8655 48.4967 72.6549L45.8491 70.4337L47.6926 68.4585C49.3098 66.7251 49.9816 66.5498 53.1615 67.0326C56.0088 67.4644 57.0499 67.2923 58.0122 66.2284C59.5028 64.581 59.5628 63.9529 58.2232 64.0032C57.6657 64.0235 55.8903 63.9829 54.2789 63.9131C51.6028 63.7963 51.3821 63.6064 51.7416 61.7277C52.213 59.2614 50.006 56.4812 47.5774 56.4812C46.5704 56.4812 44.0396 58.4921 41.2118 61.5386ZM48.4829 61.8194C48.5925 62.6772 47.6074 64.6573 46.2929 66.2195L43.9049 69.0598L42.2293 67.4035L40.5538 65.748L43.3799 62.6617C46.3205 59.4513 48.1413 59.1511 48.4829 61.8194ZM167.967 60.0965C167.298 60.2596 164.012 60.835 160.664 61.3747C147.231 63.5431 132.277 70.5871 121.542 79.802C106.24 92.9374 97.7976 110.316 96.8003 130.736C96.092 145.241 97.7294 152.415 106.649 173.874C111.298 185.059 112.779 191.877 113.47 205.278L114.008 215.709L117.166 217.474C119.567 218.817 120.384 219.817 120.577 221.65C120.727 223.07 121.716 224.77 122.983 225.784C125.085 227.467 125.103 227.556 123.739 229.639C122.74 231.162 121.641 231.771 119.892 231.771C118.545 231.771 116.03 232.194 114.305 232.711C111.533 233.542 111.171 233.944 111.192 236.16C111.214 238.459 111.774 238.973 117.886 242.302C123.374 245.292 126.713 248.085 136.728 258.062C151.762 273.041 154.097 274.362 165.533 274.355C170.588 274.352 174.498 273.897 176.893 273.034C178.901 272.311 182.843 271.294 185.653 270.776C188.463 270.258 194.141 268.657 198.271 267.217C204.28 265.123 206.287 264.746 208.319 265.329C211.987 266.381 216.432 265.322 217.928 263.04C219.001 261.401 219.059 260.169 218.313 254.801C216.49 241.694 211.529 235.816 201.771 235.201C198.136 234.973 195.333 234.148 191.498 232.181C188.597 230.693 184.855 229.22 183.181 228.91C181.508 228.599 180.138 228.061 180.138 227.714C180.138 226.174 185.232 216.4 186.749 215.03C188.199 213.72 189.799 213.512 198.394 213.512C207.215 213.512 208.563 213.326 210.16 211.889C211.779 210.431 211.91 209.756 211.453 205.273C210.993 200.77 211.137 200.051 212.912 197.939C214.429 196.138 214.696 195.265 214.071 194.15C213.471 193.077 213.617 192.308 214.63 191.187C215.8 189.895 215.859 189.247 215.035 186.748C213.82 183.066 214.3 181.813 217.195 181.1C220.759 180.224 223.143 178.345 223.143 176.414C223.143 175.447 221.645 172.175 219.813 169.142C216.3 163.328 212.483 154.702 213.031 153.815C213.209 153.527 216.197 153.051 219.67 152.759C227.188 152.126 239.026 149.408 241.595 147.725C243.64 146.385 244.037 143.207 242.338 141.795C241.737 141.297 240.002 140.641 238.483 140.339C236.643 139.971 234.602 138.547 232.37 136.073C230.527 134.03 226.976 130.898 224.477 129.113C220.136 126.011 219.931 125.704 219.887 122.215C219.805 115.704 217.67 106.179 215.308 101.786C212.299 96.1916 207.113 91.2657 200.768 87.9757C196.64 85.8357 195.84 85.1135 196.592 84.207C197.314 83.337 197.177 82.8331 195.978 81.9566C195.129 81.335 193.795 80.827 193.014 80.827C190.83 80.827 190.628 79.7314 192.303 76.9747L193.836 74.4549L197.723 75.931L201.611 77.4064L204.238 72.8278C205.683 70.3088 206.877 67.8369 206.891 67.3337C206.922 66.1432 200.3 63.3158 193.796 61.7439C189.028 60.5915 170.728 59.4246 167.967 60.0965ZM190.007 62.4962C195.83 63.6169 205.292 66.7478 205.292 67.5536C205.292 67.7768 204.328 69.6052 203.149 71.6178C201.397 74.6082 200.693 75.1828 199.294 74.7673C185.31 70.6139 182.235 70.1497 171.213 70.5319C163.663 70.7941 158.242 71.4482 153.767 72.6362C132.164 78.3745 115.971 93.0591 108.882 113.338C102.983 130.212 104.182 145.39 113.171 167.668C117.234 177.736 120.529 188.724 121.685 196.064C122.762 202.899 122.762 214.397 121.687 216.407C120.858 217.956 120.802 217.956 117.624 216.334C114.533 214.757 114.421 214.563 114.897 211.592C115.168 209.888 114.988 204.072 114.495 198.667C113.528 188.072 110.223 176.269 105.676 167.177C96.5642 148.954 95.3593 128.916 102.233 109.916C111.199 85.1354 133.278 67.4928 161.476 62.5774C169.718 61.1409 182.77 61.1036 190.007 62.4962ZM298.397 69.4656C294.559 72.1436 291.028 74.3348 290.549 74.3348C289.306 74.3348 289.465 75.0237 291.229 77.2668C292.081 78.3502 292.903 78.9426 293.055 78.5823C293.207 78.2228 294.585 77.0469 296.117 75.97C298.034 74.6228 299.007 74.3226 299.235 75.0067C299.417 75.5537 301.002 77.8178 302.756 80.0374C306.24 84.4456 308.81 85.1979 312.218 82.8095C315.09 80.7986 314.492 77.7156 309.89 70.803C307.616 67.3897 305.67 64.5964 305.566 64.5964C305.461 64.5964 302.235 66.7876 298.397 69.4656ZM308.266 74.0678C311.202 78.5028 311.267 78.8842 309.266 79.9554C307.639 80.8262 305.948 79.4539 303.079 74.9393C301.932 73.1337 301.852 72.4699 302.665 71.4904C304.329 69.4859 305.626 70.0832 308.266 74.0678ZM186.63 72.8521C189.084 73.3204 191.323 73.8405 191.605 74.0069C191.886 74.1741 191.521 75.5748 190.793 77.1191C189.862 79.0944 188.748 80.0901 187.035 80.4764C183.83 81.1995 179.08 83.6316 177.754 85.2311C177.171 85.9331 176.373 86.5077 175.982 86.5077C174.517 86.5077 175.351 84.0374 177.733 81.3244C180.117 78.6083 180.141 78.5028 178.497 77.9809C174.119 76.5908 164.776 79.479 159.853 83.7428C158.737 84.7093 156.364 85.7465 154.579 86.0483C133.719 89.5744 118.352 101.672 112.801 118.937C111.159 124.044 110.998 125.764 111.412 133.811C111.903 143.372 112.709 146.801 119.556 168.472C125.03 185.796 126.61 192.418 127.149 200.288C127.522 205.747 127.916 207.407 128.884 207.592C129.837 207.777 129.499 208.558 127.465 210.876C124.023 214.796 122.995 214.772 123.633 210.784C124.285 206.709 122.922 192.552 121.259 186.104C120.542 183.324 117.81 175.69 115.188 169.139C108.298 151.922 106.807 145.715 106.836 134.388C106.886 115.139 114.751 98.3211 129.242 86.4776C134.759 81.9688 146.314 75.9846 153.379 73.9777C163.032 71.2347 175.869 70.8006 186.63 72.8521ZM30.8379 74.45C30.8379 74.9596 29.3505 77.7326 27.5322 80.6119C25.7138 83.4912 24.3449 85.9412 24.4894 86.0581C24.6338 86.1741 27.1824 87.613 30.1522 89.2555C33.122 90.898 36.0131 92.797 36.5762 93.4763C37.6562 94.7779 37.4404 95.0433 43.6988 84.7296C45.4547 81.8357 45.4645 81.7067 43.9925 80.9187C42.8939 80.3311 42.4679 80.3758 42.4679 81.0786C42.4679 81.83 38.9585 88.1137 37.7049 89.6069C37.3852 89.9883 34.0835 87.8272 34.0835 87.2372C34.0835 86.9605 34.9664 85.4324 36.0455 83.8418C37.7852 81.2782 37.8566 80.8919 36.6703 80.4358C35.9336 80.1534 35.1944 80.3336 35.0272 80.8351C34.8601 81.3366 33.8912 82.7154 32.8737 83.8986C31.3345 85.688 30.8168 85.8771 29.7903 85.0258C28.7014 84.121 28.7923 83.5821 30.5742 80.3936C31.6834 78.4086 32.9443 76.5665 33.3768 76.2987C33.8636 75.9976 33.8012 75.3784 33.2121 74.6683C32.0664 73.2871 30.8379 73.1743 30.8379 74.45ZM175.261 81.8414C172.406 86.5247 173.043 88.0975 181.558 97.4024C186.399 102.693 187.218 102.371 182.995 96.8384L180.171 93.1395L183.023 90.6351C184.591 89.2579 186.592 88.1307 187.47 88.1307C188.347 88.1307 189.064 87.7956 189.064 87.3857C189.064 86.9759 189.3 85.9713 189.589 85.154C190.021 83.9327 189.798 83.9936 188.341 85.4933C187.365 86.4979 186.116 87.3192 185.566 87.3192C185.016 87.3192 183.258 88.3961 181.661 89.7132C179.475 91.5164 178.529 91.8767 177.826 91.174C176.392 89.74 176.693 88.6209 179.124 86.3527C182.501 83.2031 184.477 82.45 189.368 82.45C194.227 82.45 195.28 83.178 193.968 85.6296C193.309 86.8623 193.5 87.8694 194.821 90.1076C195.757 91.6958 197.041 94.713 197.673 96.8124C198.666 100.115 198.665 100.787 197.663 101.79C196.657 102.795 196.078 102.503 193.315 99.5976C191.562 97.7546 189.705 96.246 189.19 96.246C187.006 96.246 188.828 101.736 192.338 105.735C193.661 107.242 194.744 109.193 194.744 110.07C194.744 112.305 195.846 112.061 198.717 109.19C201.731 106.175 203.049 106.64 207.315 112.228C210.321 116.166 210.553 117.571 208.268 118.014C207.314 118.199 206.915 117.713 206.915 116.363C206.915 115.088 206.084 113.958 204.425 112.978C202.016 111.555 201.899 111.556 200.819 113.006C197.281 117.758 197.293 117.815 202.909 123.504C205.782 126.415 209.383 129.576 210.913 130.53C212.443 131.483 213.261 132.408 212.733 132.584C211.397 133.029 204.754 129.703 201.723 127.072C200.339 125.87 197.677 123.93 195.808 122.76C192.666 120.795 192.204 120.716 189.722 121.723C188.244 122.322 185.483 123.048 183.587 123.335L180.138 123.857V120.926C180.138 118.688 179.501 117.357 177.444 115.3C170.14 107.995 158.636 112.146 155.408 123.25L154.067 127.866L151.718 126.128C149.078 124.177 149.254 123.475 153.201 120.179C155.462 118.291 155.843 117.484 155.635 115.013C155.297 110.975 153.672 110.944 148.44 114.876C143.351 118.701 139.487 119.198 136.026 116.475C133.141 114.206 133.336 113.288 136.701 113.288C138.884 113.288 140.433 112.472 143.625 109.636C148.384 105.408 150.553 105.091 154.128 108.1L156.643 110.216L158.269 108.148C159.163 107.011 160.583 105.862 161.422 105.596C163.77 104.851 164.162 102.705 162.31 100.734C160.565 98.8762 160.222 96.5787 161.409 94.7033C161.854 93.9997 161.69 92.3239 160.979 90.3072C159.617 86.446 160.093 84.3636 162.516 83.5951C163.489 83.2859 165.269 82.3048 166.473 81.4145C167.768 80.4569 169.349 79.9757 170.343 80.2354C171.266 80.4772 172.227 80.3433 172.477 79.9392C172.727 79.535 173.818 79.2039 174.9 79.2039H176.869L175.261 81.8414ZM158.399 89.0364C158.083 89.3188 155.174 90.1344 151.934 90.8485C138.182 93.8796 126.756 102.108 121.092 113.059C115.712 123.465 114.858 132.757 118.114 145.484C119.164 149.587 127.448 176.58 127.857 177.231C127.94 177.361 129.806 176.784 132.005 175.949C137.034 174.038 143.613 169.543 152.932 161.651C156.936 158.261 160.496 155.488 160.844 155.488C165.082 155.488 146.702 171.4 136.049 176.953C133.291 178.39 130.519 179.739 129.889 179.949C128.912 180.275 128.935 181.102 130.042 185.56C130.757 188.436 131.592 193.389 131.898 196.567L132.454 202.344L144.733 202.822C151.487 203.084 157.992 203.535 159.188 203.823L161.365 204.347L161.623 190.938C161.766 183.564 162.187 177.226 162.56 176.856C162.933 176.485 163.953 177.063 164.826 178.14C166.057 179.659 166.27 180.664 165.771 182.604C165.417 183.981 165.252 190.328 165.406 196.707L165.683 208.306L163.783 207.863C159.373 206.839 146.643 205.815 138.227 205.809L129.178 205.802L128.622 200.73C127.657 191.922 125.107 181.524 120.118 166.037C113.533 145.6 112.534 141.084 112.494 131.547C112.467 125.127 112.843 122.35 114.294 118.249C118.302 106.924 125.509 98.9257 136.728 93.3488C144.657 89.4072 157.368 86.0597 158.399 87.6414C158.715 88.1259 158.715 88.754 158.399 89.0364ZM201.382 89.8974C212.137 95.6301 218.23 107.436 218.274 122.621C218.286 126.401 218.494 126.817 221.323 128.705C228.318 133.373 236.499 142.486 234.696 143.601C234.36 143.809 231.166 144.625 227.6 145.415C217.759 147.593 197.052 147.4 185.889 145.026C174.723 142.652 174.167 142.329 174.827 138.579C175.114 136.943 176.326 133.324 177.518 130.536C179.493 125.919 179.94 125.427 182.549 125.01C184.124 124.757 187.121 124.178 189.21 123.722C192.669 122.966 193.339 123.086 196.716 125.065C198.756 126.26 200.424 127.553 200.424 127.939C200.424 128.323 202.158 129.64 204.278 130.864C206.398 132.088 208.425 133.567 208.784 134.149C209.164 134.768 210.262 135.038 211.421 134.798C218.376 133.36 218.138 133.776 213.733 130.766C211.545 129.272 207.455 125.704 204.643 122.837L199.531 117.626L201.101 115.686C202.449 114.022 202.858 113.901 203.982 114.834C204.702 115.432 205.292 116.794 205.292 117.86C205.292 119.684 205.498 119.768 208.741 119.271C210.637 118.981 212.314 118.638 212.466 118.511C213.322 117.795 211.062 114.05 207.503 110.288C203.088 105.618 200.582 104.879 197.732 107.405C196.615 108.395 196.027 108.531 195.79 107.856C195.603 107.323 194.379 105.538 193.068 103.89C190.069 100.114 189.952 98.1547 192.94 101.731C195.464 104.752 197.127 105.036 199.157 102.793C200.865 100.905 200.376 97.7522 197.484 92.0123C194.598 86.2853 194.602 86.2829 201.382 89.8974ZM159.768 92.0293C160.247 92.9236 160.263 93.9494 159.809 94.6668C158.61 96.5625 158.927 99.1277 160.629 101.291L162.215 103.309L159.209 105.255C156.219 107.19 156.184 107.193 153.164 105.717C149.311 103.834 145.92 104.782 141.987 108.84C139.609 111.293 138.737 111.665 135.352 111.665C131.182 111.665 130.581 112.472 132.684 115.252C134.78 118.023 138.259 119.77 141.693 119.775C144.377 119.779 145.839 119.141 149.112 116.534C151.354 114.749 153.434 113.288 153.735 113.288C154.035 113.288 154.165 114.287 154.024 115.508C153.857 116.949 152.867 118.304 151.205 119.363C147.877 121.485 147.156 124.574 149.558 126.418C150.535 127.168 151.967 128.263 152.743 128.852C153.517 129.442 154.373 131.053 154.644 132.432C155.123 134.876 155.068 134.931 152.493 134.553C150.559 134.268 149.561 134.562 148.767 135.649C147.385 137.539 147.369 141.765 148.737 143.636C149.718 144.977 149.86 144.928 150.774 142.921C151.387 141.576 152.277 140.865 153.14 141.031C154.699 141.331 155.772 143.339 157.826 149.792L159.242 154.241L154.881 158.146C148.397 163.954 147.799 164.179 146.758 161.194C146.28 159.822 145.162 158.311 144.274 157.835C142.838 157.067 142.722 157.17 143.232 158.774C143.738 160.366 143.577 160.521 141.857 160.089C140.765 159.815 138.88 160.135 137.561 160.819C134.78 162.262 133.076 161.821 133.076 159.657C133.076 157.912 134.873 156.917 136.735 157.632C137.72 158.01 137.821 157.728 137.255 156.185C136.868 155.132 135.769 154.153 134.814 154.011C133.859 153.868 133.076 153.349 133.076 152.857C133.076 151.606 130.593 148.995 129.401 148.995C128.781 148.995 128.405 150.282 128.394 152.444C128.383 154.342 128.109 158.005 127.783 160.586C127.009 166.718 128.444 168.619 133.644 168.349C137.256 168.162 139.721 169.477 138.31 170.839C136.644 172.446 129.503 175.769 128.977 175.182C128.165 174.274 120.335 149.507 118.903 143.315C114.19 122.932 122.561 104.944 140.815 96.2314C145.004 94.2318 155.681 90.8201 158.405 90.6099C158.724 90.5856 159.337 91.2243 159.768 92.0293ZM20.4039 93.1192C19.9016 94.4769 20.0947 95.2957 21.1341 96.2143C21.9115 96.9009 23.9343 99.045 25.6302 100.979L28.7128 104.494L22.1022 104.225C15.8681 103.971 15.4437 104.062 14.6452 105.82C14.1795 106.845 13.7973 107.758 13.7965 107.848C13.7957 107.939 17.7635 107.9 22.6142 107.762C31.0643 107.521 31.4708 107.427 32.3349 105.53C32.8315 104.441 32.9216 103.55 32.5362 103.55C32.1507 103.55 29.4163 100.787 26.4611 97.4114C21.4279 91.6625 21.0433 91.3906 20.4039 93.1192ZM309.938 92.1884C301.71 92.5787 301.422 92.655 302.23 94.2172C302.765 95.2535 303.888 95.8402 305.338 95.8402C307.23 95.8402 307.869 96.4213 309.166 99.3168C310.673 102.683 310.675 102.84 309.24 104.275C308.044 105.471 307.933 106.084 308.665 107.452C309.509 109.029 309.955 108.665 315.047 102.25C320.029 95.9717 320.43 95.1902 319.503 93.5672C318.53 91.8621 318.103 91.8005 309.938 92.1884ZM316.427 95.2316C316.411 95.5659 315.535 96.896 314.479 98.1872L312.56 100.534L311.275 98.0476C310.294 96.1502 310.226 95.4661 310.991 95.1561C312.589 94.5101 316.459 94.5637 316.427 95.2316ZM325.091 108.18C324.742 108.534 322.2 109.583 319.442 110.509C313.181 112.612 311.894 114.62 313.279 120.121C314.279 124.094 317.218 127.896 319.291 127.896C321.82 127.896 331.062 124.492 331.05 123.564C331.028 121.931 329.692 120.338 329.12 121.264C328.152 122.83 319.845 124.783 318.107 123.853C316.255 122.862 315.04 117.674 316.222 115.801C316.666 115.097 319.158 113.873 321.758 113.081C324.36 112.289 326.612 111.517 326.764 111.365C326.915 111.213 326.743 110.289 326.382 109.312C326.021 108.335 325.44 107.825 325.091 108.18ZM174.48 114.624C175.584 115.359 176.944 116.524 177.501 117.213C179.203 119.317 178.642 124.495 176.081 130.33C174.743 133.381 173.647 137.185 173.647 138.785C173.647 140.827 173.285 141.692 172.43 141.692C171.689 141.692 171.213 140.936 171.213 139.762C171.213 138.701 170.701 137.407 170.074 136.888C169.102 136.08 169.117 135.582 170.186 133.438C174.284 125.222 170.968 117.745 164.352 120.284C161.2 121.494 159.416 130.538 161.544 134.514C162.186 135.715 162.16 136.793 161.447 138.514C160.15 141.647 161.776 144.163 166.68 146.613L170.316 148.429L169.102 150.776C167.499 153.878 164.552 155.229 161.963 154.049C160.055 153.18 159.289 151.533 157.422 144.287C156.371 140.21 153.991 138.759 151.224 140.511C148.213 142.415 147.367 139.572 150.123 136.815C151.65 135.288 151.94 135.262 154.68 136.407C157.572 137.615 157.601 137.608 157.055 135.806C154.636 127.805 156.026 121.271 161.155 116.542C164.253 113.687 165.162 113.288 168.58 113.288C170.842 113.288 173.315 113.848 174.48 114.624ZM11.3639 115.656C11.3639 116.066 11.1196 117.039 10.8202 117.818C10.4721 118.725 10.5898 119.042 11.148 118.697C11.6268 118.401 15.1362 119.174 18.9458 120.416C25.713 122.622 25.8817 122.637 26.2939 121.06C26.5268 120.171 26.6396 119.395 26.5455 119.334C26.1609 119.082 12.3059 114.911 11.854 114.911C11.5846 114.911 11.3639 115.246 11.3639 115.656ZM170.242 126.086C170.587 130.704 168.686 134.873 165.998 135.387C163.252 135.912 162.023 133.806 161.942 128.435C161.891 125.085 162.222 124.219 164.203 122.513C166.293 120.714 166.699 120.628 168.26 121.661C169.463 122.454 170.071 123.815 170.242 126.086ZM213.001 125.033L209.755 126.102L213.204 126.187C215.766 126.251 216.652 125.959 216.652 125.055C216.652 124.386 216.56 123.866 216.449 123.9C216.338 123.934 214.786 124.444 213.001 125.033ZM7.89508 127.578C6.34852 129.124 7.60297 130.18 11.574 130.677C18.3413 131.522 18.3802 132.071 11.9465 136.004C5.67748 139.838 4.9042 140.559 4.88473 142.592C4.8758 143.59 6.34609 144.142 11.161 144.942C14.6201 145.516 18.0475 146.289 18.7786 146.659C19.7953 147.173 20.1945 146.88 20.4753 145.411C20.8104 143.655 20.5037 143.444 16.9067 142.967C8.91584 141.907 8.86229 141.593 15.9281 137.221C25.6375 131.213 25.8501 130.182 17.6524 128.863C14.4172 128.343 11.0304 127.708 10.1265 127.453C9.22256 127.198 8.21802 127.254 7.89508 127.578ZM331.873 133.506C329.992 134.505 318.893 136.108 317.941 135.52C317.419 135.197 317.264 135.581 317.537 136.518C317.781 137.355 318.439 140.87 318.999 144.329C319.849 149.571 320.272 150.618 321.537 150.618C322.676 150.618 322.931 150.221 322.553 149.032C322.277 148.159 321.76 145.61 321.405 143.367C320.677 138.755 320.289 139.081 328.151 137.683C333.692 136.697 333.714 136.683 333.359 134.505C333.167 133.329 332.744 133.045 331.873 133.506ZM168.616 137.796C170.892 140.073 169.178 144.126 165.939 144.126C163.764 144.126 162.287 142.649 162.287 140.474C162.287 138.299 163.764 136.822 165.939 136.822C166.876 136.822 168.081 137.261 168.616 137.796ZM240.832 142.665C242.996 144.83 241.918 146.484 237.546 147.707C225.127 151.178 219.667 151.827 202.858 151.824C185.434 151.823 180.259 151.071 171.334 147.249L167.803 145.736L169.649 144.241C171.335 142.876 171.815 142.844 175.208 143.878C180.752 145.567 195.743 147.973 204.481 148.577C217.58 149.481 235.892 146.415 236.739 143.176C237.18 141.489 239.381 141.214 240.832 142.665ZM173.998 150.071C175.404 151.1 175.384 151.28 173.544 154.119C171.378 157.463 171.353 157.473 169.362 155.962C167.987 154.919 168.008 154.722 169.768 151.965C171.877 148.66 171.994 148.607 173.998 150.071ZM132.265 153.924C132.265 154.234 133.086 154.73 134.091 155.028L135.916 155.57L134.203 156.272C132.207 157.091 131.225 159.169 131.871 161.207C132.549 163.342 134.448 163.729 137.658 162.388C139.74 161.518 140.954 161.419 142.088 162.026C143.376 162.715 143.776 162.535 144.361 161.001C145.061 159.169 145.083 159.178 145.686 161.497C146.384 164.185 145.666 165.653 142.49 168.024C140.399 169.585 140.215 169.6 139.469 168.267C138.864 167.186 137.619 166.849 134.236 166.849C130.316 166.849 129.69 166.617 128.893 164.868C128.229 163.41 128.234 161.923 128.91 159.234C129.417 157.224 129.842 154.372 129.857 152.896C129.881 150.361 129.948 150.299 131.074 151.788C131.729 152.654 132.265 153.616 132.265 153.924ZM186.45 152.986C187.233 153.411 186.885 154.678 185.03 158.155C182.136 163.578 181.968 165.522 184.255 167.124C186.773 168.887 184.748 169.537 181.266 168.082C179.617 167.392 178.098 166.997 177.892 167.203C177.204 167.89 179.299 172.736 180.744 173.8C182.1 174.799 182.1 174.874 180.745 175.399C178.506 176.267 175.414 175.126 173.948 172.889C170.714 167.953 171.155 160.427 175.022 154.584L177.182 151.317L181.298 151.87C183.561 152.174 185.879 152.676 186.45 152.986ZM0.814663 153.595C0.815475 154.117 0.632905 155.03 0.410577 155.624C0.0957475 156.464 1.56684 156.746 6.99927 156.889C10.8454 156.99 14.4968 157.491 15.1126 158.002C16.5302 159.18 16.5764 165.257 15.1816 167.164C14.2874 168.388 13.0841 168.561 7.06581 168.333L0 168.066L0.00162504 170.501L0.00243601 172.935L8.20098 172.505C17.4998 172.017 18.2268 171.552 19.1308 165.528C19.7491 161.4 19.1097 157.215 17.529 155.053C16.6162 153.804 14.9917 153.447 8.61318 153.087C2.95518 152.768 0.814663 152.908 0.814663 153.595ZM204.493 153.857L211.403 153.864L212.905 158.096C213.732 160.422 216.233 165.537 218.465 169.463C222.987 177.417 222.928 178.1 217.57 179.706C213.078 181.051 212.129 182.448 213.243 186.076C214.583 190.445 213.428 191.983 208.712 192.108L204.887 192.209L208.32 192.769C210.209 193.077 212.028 193.603 212.364 193.939C212.7 194.275 212.162 195.962 211.169 197.688C209.644 200.337 209.441 201.57 209.863 205.608C210.357 210.341 210.338 210.401 207.925 211.401C206.329 212.061 202.409 212.321 196.591 212.15C186.432 211.851 185.982 212.046 182.927 218.076C178.141 227.524 175.698 236.617 177.629 237.81C178.033 238.061 178.173 237.535 177.939 236.641C177.668 235.6 177.913 235.02 178.624 235.025C180.664 235.04 187.819 238.827 190.281 241.196L192.715 243.538L183.384 244.101C178.252 244.411 171.654 245.174 168.722 245.798L163.392 246.93L160.202 244.174C155.695 240.279 146.412 234.007 141.393 231.466C137.122 229.303 136.502 228.346 137.92 226.102C138.553 225.102 139.121 225.344 141.251 227.522C142.662 228.966 144.109 230.148 144.466 230.148C144.823 230.148 145.692 230.37 146.398 230.641C147.404 231.027 147.682 230.57 147.682 228.527V225.922L150.462 228.363C153.055 230.641 157.822 232.45 158.76 231.512C158.987 231.285 158.766 230.337 158.268 229.406C157.143 227.304 157.503 227.294 160.848 229.333C162.309 230.224 164.339 230.955 165.358 230.956C166.987 230.96 167.102 230.753 166.307 229.267C165.135 227.076 165.937 226.301 167.759 227.865C169.985 229.778 171.873 230.182 174.018 229.205C176.743 227.963 177.269 226.101 175.288 224.713C172.694 222.896 173.284 220.361 177.057 217.11C180.084 214.503 180.473 213.77 180.506 210.596C180.534 208.003 181.046 206.517 182.37 205.194C183.374 204.189 184.196 202.463 184.196 201.356C184.196 199.49 184.045 199.414 182.109 200.296C180.419 201.065 179.881 201.023 179.282 200.075C178.077 198.173 178.381 197.086 180.921 194.192C185.323 189.177 186.116 184.503 183.338 179.945C181.745 177.333 181.735 177.15 183.106 175.635C184.337 174.274 184.371 173.949 183.352 173.304C182.7 172.892 181.906 172.549 181.587 172.542C181.268 172.535 180.654 171.869 180.221 171.062C179.516 169.744 179.811 169.599 183.12 169.641C186.147 169.681 187.041 169.337 188.13 167.717C189.411 165.811 189.397 165.761 187.675 166.211C186.695 166.467 185.275 166.224 184.518 165.671C183.226 164.726 183.232 164.493 184.6 161.902C185.403 160.383 186.795 157.727 187.695 155.999L189.33 152.858L193.457 153.354C195.727 153.627 200.693 153.854 204.493 153.857ZM326.599 153.654C320.424 155.07 318.411 165.632 323.37 170.592C326.037 173.258 330.947 173.249 334.059 170.571C336.123 168.795 336.336 168.116 336.336 163.285C336.336 158.665 336.067 157.701 334.307 156.008C332.147 153.931 329.249 153.046 326.599 153.654ZM169.278 157.47C170.708 158.471 170.896 159.277 170.582 163.059C170.38 165.49 170.647 168.786 171.174 170.383C172.239 173.612 176.204 177.399 178.519 177.399C180.976 177.399 183.384 181.238 183.384 185.155C183.384 187.883 182.77 189.44 180.544 192.357C177.5 196.346 176.858 200.031 178.911 201.736C179.574 202.287 180.67 202.526 181.345 202.266C183.313 201.512 182.759 203.208 180.57 204.643C178.806 205.799 178.624 206.365 179.04 209.401C179.488 212.672 179.321 213.036 175.768 216.54C171.776 220.475 171.271 222.219 173.288 225.1C175.856 228.765 171.711 229.909 168.284 226.481C165.962 224.159 164.722 224.463 164.722 227.356C164.722 230.02 163.086 229.853 160.257 226.9C157.769 224.303 156.644 224.742 156.62 228.322C156.613 229.327 156.407 230.148 156.161 230.148C154.784 230.148 150.865 227.449 149.42 225.504L147.744 223.25L146.724 225.887C145.445 229.193 144.28 229.212 141.743 225.969C139.551 223.17 137.307 223.223 136.556 226.094C136.031 228.101 134.679 228.134 130.812 226.235C129.157 225.422 127.136 224.906 126.322 225.089C125.507 225.272 124.139 224.785 123.279 224.007C120.582 221.565 121.334 219.024 126.179 214.218C128.634 211.782 130.642 209.209 130.642 208.498C130.642 207.346 132.19 207.265 145.045 207.743C152.966 208.038 161.204 208.491 163.35 208.75L167.253 209.22L166.747 196.352C166.469 189.275 166.537 183.12 166.901 182.674C167.265 182.227 168.654 181.302 169.99 180.617C171.326 179.932 172.552 178.654 172.715 177.777C172.981 176.344 172.788 176.388 170.816 178.21L168.622 180.239L166.174 177.399C158.547 168.547 157.126 162.959 161.413 158.671C164.013 156.071 166.696 155.661 169.278 157.47ZM206.759 158.849C207.118 161.296 207.039 161.378 204.792 160.866C202.257 160.29 203.61 161.399 206.509 162.273C207.93 162.701 208.148 162.36 208.254 159.531C208.333 157.452 208.02 156.299 207.38 156.299C206.726 156.299 206.513 157.172 206.759 158.849ZM202.265 157.673C203.054 157.879 204.15 157.865 204.699 157.643C205.249 157.421 204.603 157.253 203.264 157.269C201.925 157.285 201.475 157.467 202.265 157.673ZM331.549 157.731C332.844 158.596 334.307 161.625 334.307 163.44C334.307 166.088 331.202 169.283 328.628 169.283C323.876 169.283 321.245 162.49 324.602 158.887C326.231 157.139 329.777 156.549 331.549 157.731ZM197.178 158.66C197.848 159.039 199.291 159.624 200.386 159.96C202.227 160.525 202.277 160.471 201.053 159.246C200.324 158.518 198.881 157.933 197.844 157.946C196.393 157.966 196.24 158.129 197.178 158.66ZM164.35 161.286C162.392 162.827 162.163 163.458 162.541 166.278C162.779 168.054 163.567 170.096 164.291 170.816C165.507 172.022 165.512 171.89 164.354 169.107C162.694 165.116 162.744 164.695 165.177 162.262C167.826 159.613 167.287 158.975 164.35 161.286ZM160.154 171.605C161.814 174.282 161.891 174.862 160.982 177.805C160.414 179.641 159.95 185.76 159.916 191.895L159.853 202.74L157.216 202.241C155.766 201.967 149.74 201.508 143.828 201.223L133.076 200.703V197.662C133.076 195.988 132.507 191.619 131.811 187.951C131.116 184.283 130.659 181.182 130.797 181.061C130.935 180.939 133.056 179.841 135.511 178.62C141.1 175.84 148.604 170.806 153.346 166.656L156.981 163.475L157.652 166.063C158.022 167.487 159.147 169.981 160.154 171.605ZM207.808 178.819C207.741 180.972 208.036 181.456 209.407 181.456C210.332 181.456 211.701 180.838 212.45 180.082C213.726 178.793 213.71 178.746 212.189 179.33C209.42 180.394 209.105 180.298 208.488 178.21C207.928 176.316 207.883 176.356 207.808 178.819ZM18.5116 220.589L10.6482 223.839L12.1404 227.602C12.9608 229.672 14.2761 233.009 15.0639 235.017C15.8518 237.026 16.544 238.746 16.6024 238.839C16.6608 238.934 17.4487 238.817 18.3534 238.581C19.986 238.153 19.9844 238.121 18.1392 234.266C14.5446 226.753 14.4927 226.404 16.802 225.352C17.9428 224.832 18.9733 224.511 19.0918 224.64C19.9446 225.563 21.8133 231.274 21.453 231.857C20.8664 232.807 21.6551 232.777 23.5189 231.78C24.9746 231 24.973 230.882 23.4653 227.761C21.5796 223.856 21.5431 223.159 23.196 222.525C25.4338 221.667 25.6651 221.917 28.0109 227.746C29.637 231.785 30.6448 233.331 31.4521 233.021C32.0802 232.78 32.791 232.583 33.0319 232.583C33.2737 232.583 33.1131 232.127 32.6765 231.568C32.2392 231.011 30.9125 227.997 29.727 224.873C28.5424 221.749 27.3033 218.775 26.9739 218.266C26.5536 217.616 24.026 218.31 18.5116 220.589ZM324.57 220.459C322.116 220.821 317.975 221.229 315.367 221.364C307.921 221.752 307.992 222.921 315.979 231.409C322.146 237.963 322.785 238.431 323.309 236.781C323.729 235.456 323.422 234.598 322.161 233.574C320.462 232.196 320.457 232.123 321.868 228.322C323.187 224.765 323.951 224.138 326.825 224.253C327.397 224.276 328.41 223.238 329.078 221.947C329.746 220.655 330.009 219.644 329.663 219.7C329.316 219.755 327.025 220.097 324.57 220.459ZM320.485 225.482C320.469 226.04 319.979 227.357 319.395 228.41L318.334 230.322L316.584 228.097C314.193 225.056 314.369 224.467 317.673 224.467C319.42 224.467 320.502 224.858 320.485 225.482ZM132.835 228.963C143.794 233.089 153.019 239.254 163.099 249.189C170.909 256.887 174.759 263.115 174.82 268.149L174.864 271.873L171.213 272.559C165.71 273.595 158.404 272.618 153.412 270.177C150.298 268.656 145.943 264.953 138.61 257.594C129.199 248.147 118.885 240.088 114.374 238.657C113.396 238.346 112.791 237.425 112.791 236.247C112.791 234.613 113.378 234.215 116.888 233.461C119.141 232.978 121.614 232.583 122.383 232.583C123.153 232.583 124.47 231.304 125.311 229.742C126.152 228.18 126.957 226.902 127.1 226.902C127.242 226.902 129.823 227.829 132.835 228.963ZM186.792 231.368C189.542 232.485 192.729 234.022 193.877 234.783C195.1 235.594 197.852 236.239 200.542 236.343C206.387 236.57 211.058 238.928 213.346 242.806C215.623 246.667 217.464 253.788 217.464 258.74C217.464 262.121 217.191 262.768 215.426 263.572C214.025 264.211 212.187 264.269 209.543 263.758C205.722 263.02 205.675 262.969 202.047 255.988C195.465 243.322 191.333 238.852 183.114 235.511C178.732 233.731 178.185 233.126 178.804 230.757C179.303 228.845 180.88 228.965 186.792 231.368ZM302.409 239.825C294.938 248.096 297.498 257.74 307.166 257.74C310.891 257.74 315.072 253.851 316.368 249.181C317.673 244.478 317.513 243.132 315.645 243.132C314.377 243.132 314.022 243.674 314.022 245.608C314.022 252.805 307.064 257.152 302.803 252.616C301.833 251.583 301.041 249.848 301.043 248.761C301.047 246.12 303.977 241.438 305.948 240.923C307.797 240.439 307.867 239.991 306.392 238.049C305.388 236.724 305.089 236.857 302.409 239.825ZM30.2074 240.338C27.8803 241.968 27.9411 244.133 30.4662 249.558C32.5451 254.025 32.2578 256.024 29.68 255.034C27.8324 254.326 25.1644 249.574 25.1612 246.987C25.1588 245.298 24.7636 244.756 23.5351 244.756C21.2907 244.756 21.462 246.822 24.1437 252.114C26.7962 257.349 29.654 259.279 33.0141 258.104C36.0504 257.042 36.4082 253.776 34.0413 248.724C32.2643 244.928 32.3601 241.882 34.2377 242.508C36.1713 243.152 38.4652 247.256 38.4652 250.071C38.4652 252.501 38.72 252.905 40.1286 252.703C44.6628 252.054 38.1325 239.075 33.2721 239.075C32.5784 239.075 31.1989 239.644 30.2074 240.338ZM197.094 249.493C198.479 251.652 199.612 253.66 199.612 253.957C199.612 254.252 197.513 254.499 194.947 254.504C192.38 254.51 186.812 255.264 182.573 256.179C178.333 257.094 174.476 257.911 174.002 257.995C173.527 258.078 171.239 255.872 168.917 253.092C164.88 248.261 164.775 248.019 166.545 247.575C171.494 246.332 177.282 245.75 185.531 245.663L194.575 245.567L197.094 249.493ZM202.308 259.475C203.033 261.322 203.45 263.119 203.234 263.469C202.389 264.836 181.627 270.724 177.651 270.724C177.234 270.724 176.885 269.903 176.875 268.898C176.865 267.894 176.162 265.541 175.312 263.669L173.767 260.265L177.561 259.031C183.184 257.202 188.77 256.309 195.229 256.208L200.989 256.117L202.308 259.475ZM289.439 259.037C288.399 260.426 288.283 260.988 289.033 260.99C289.611 260.993 292.904 263.17 296.35 265.828L302.615 270.66L303.868 268.871C304.833 267.494 304.885 267.006 304.095 266.756C303.53 266.577 300.695 264.59 297.794 262.34C294.893 260.089 292.154 257.987 291.708 257.668C291.262 257.348 290.24 257.964 289.439 259.037ZM39.5736 261.731C35.9863 264.937 35.8402 269.837 39.2019 274.244C41.4285 277.164 47.8776 281.245 47.8776 279.734C47.8776 279.315 48.1186 278.303 48.4123 277.486C48.7069 276.668 48.6606 276.259 48.3101 276.576C47.9587 276.893 46.7132 276.656 45.5415 276.05C40.3452 273.363 38.5269 268.458 41.3814 264.828C44.6928 260.618 50.8571 262.908 52.983 269.138C53.7961 271.521 54.2708 271.938 55.7516 271.572L57.5391 271.13L55.3459 267.098C51.2052 259.49 44.5979 257.241 39.5736 261.731ZM282.816 267.387C281.685 268.518 281.979 269.066 285.824 272.985L290.085 277.329L281.832 277.121C269.622 276.813 269.269 277.451 277.219 285.449C282.949 291.214 283.635 291.672 284.87 290.554C286.117 289.424 285.862 288.972 281.664 284.878L277.103 280.429L285.488 280.552C297.432 280.726 297.764 280.131 290.087 272.283C284.66 266.735 283.948 266.255 282.816 267.387ZM60.0489 278.927C50.4417 282.698 56.1094 297.505 67.1593 297.505C76.678 297.505 77.1933 283.824 67.8344 279.573C64.1043 277.879 62.9618 277.784 60.0489 278.927ZM66.3657 282.147C73.5046 284.636 72.823 294.637 65.5284 294.432C60.8854 294.3 56.6742 287.552 59.0468 284.046C59.6561 283.146 62.4969 281.343 63.3765 281.299C63.6442 281.286 64.9896 281.667 66.3657 282.147ZM262.49 286.845C254.359 290.539 251.487 298.385 256.449 303.348C258.675 305.574 259.309 305.782 262.836 305.443C267.498 304.995 270.932 302.753 273.088 298.75C274.465 296.192 274.511 295.723 273.45 295.052C272.087 294.19 270.469 293.981 271.255 294.768C272.027 295.539 269.639 299.676 267.595 301.107C263.353 304.08 257.203 301.579 257.241 296.896C257.271 293.195 261.348 289.39 265.284 289.39C266.531 289.39 266.96 288.87 266.96 287.361C266.96 284.955 266.714 284.926 262.49 286.845ZM82.4934 292.994C82.2459 293.639 80.2288 296.907 78.0095 300.258L73.9752 306.351L81.0094 310.725C87.211 314.583 88.1563 314.947 89.0002 313.809C89.6988 312.867 89.711 312.43 89.0456 312.195C88.5442 312.017 86.0255 310.539 83.4485 308.909L78.7634 305.946L82.7596 299.706C86.488 293.886 86.6536 293.412 85.2214 292.646C83.2253 291.577 83.0273 291.603 82.4934 292.994ZM238.309 295.281C237.567 295.835 236.725 297.481 236.439 298.94C236.005 301.143 236.134 301.508 237.2 301.1C238.426 300.629 240.716 295.332 240.002 294.618C239.813 294.43 239.051 294.729 238.309 295.281ZM239.169 301.254C235.264 303.219 232.069 305.015 232.069 305.245C232.069 305.6 239.249 319.383 239.782 320.051C239.883 320.176 243.251 318.68 247.269 316.725C254.313 313.295 254.536 313.103 253.572 311.301C253.021 310.273 252.432 309.807 252.26 310.265C252.089 310.723 249.679 312.238 246.905 313.631C242.042 316.074 241.83 316.109 241.022 314.598C239.683 312.095 239.976 311.598 243.757 309.961C247.212 308.464 247.293 308.348 246.219 306.408C245.609 305.305 245.096 304.852 245.08 305.401C245.065 305.95 243.627 307.125 241.886 308.014C239.136 309.417 238.59 309.474 237.738 308.447C236.166 306.553 237.256 305.26 242.536 302.752C245.258 301.459 247.48 300.206 247.474 299.967C247.409 297.7 245.708 297.964 239.169 301.254ZM102.648 308.152C100.863 309.903 97.8617 312.515 95.9792 313.955C92.1663 316.874 91.9042 317.389 93.8484 318.135C94.6582 318.445 95.9053 317.98 96.9878 316.963L98.7834 315.276L102.605 317.133C105.955 318.76 106.388 319.259 106.107 321.17C105.861 322.846 106.231 323.552 107.704 324.224C108.759 324.704 109.733 325.097 109.869 325.097C110.004 325.097 109.985 320.826 109.826 315.607C109.456 303.491 108.457 302.454 102.648 308.152ZM225.938 307.137C224.62 308.335 211.177 312.857 210.612 312.292C210.129 311.81 210.781 314.122 211.517 315.506C211.679 315.81 212.809 315.539 214.029 314.902C215.248 314.266 216.654 313.743 217.152 313.74C217.65 313.738 219.075 316.566 220.319 320.025C221.563 323.483 222.679 326.439 222.801 326.591C222.922 326.743 223.75 326.636 224.642 326.354C226.228 325.85 226.214 325.693 223.948 318.992L221.634 312.143L224.823 311.188C226.577 310.662 228.006 309.834 228 309.347C227.977 307.754 226.73 306.418 225.938 307.137ZM106.3 312.904C106.3 316.056 106.251 316.111 104.154 315.314C100.625 313.972 100.539 313.73 102.857 311.688C105.887 309.021 106.3 309.166 106.3 312.904ZM132.001 315.25C132.341 316.548 131.595 321.282 129.675 330.007C129.53 330.664 130.19 331.262 131.233 331.421C132.79 331.659 133.114 331.231 133.579 328.322L134.119 324.947L137.858 325.583C145.889 326.949 148.493 325.917 148.493 321.366C148.493 318.104 146.531 316.848 139.162 315.395C136.484 314.867 133.685 314.263 132.941 314.052C131.927 313.765 131.691 314.065 132.001 315.25ZM203.669 314.497C202.554 314.827 201.699 315.429 201.771 315.836C201.842 316.243 202.664 319.804 203.599 323.75C204.533 327.696 205.124 331.204 204.913 331.545C204.702 331.887 205.432 331.994 206.534 331.783C208.954 331.32 208.965 331.049 206.907 322.223C206.01 318.376 205.485 314.893 205.738 314.482C205.992 314.071 206.087 313.772 205.949 313.816C205.811 313.861 204.785 314.167 203.669 314.497ZM143.876 319.565C145.813 320.583 145.294 323.001 143.071 323.319C142.106 323.457 139.878 323.183 138.12 322.709C135.278 321.944 134.969 321.619 135.322 319.767C135.695 317.818 135.933 317.721 139.064 318.239C140.903 318.544 143.069 319.14 143.876 319.565ZM158.499 319.327C154.644 321.121 153.362 323.009 153.362 326.892C153.362 330.351 155.277 333.078 158.716 334.515C168.166 338.464 177.342 331.503 173.578 323.24C171.533 318.753 163.957 316.787 158.499 319.327ZM180.547 320.025C181.928 328.387 182.529 334.25 182.081 334.975C181.76 335.495 182.144 335.65 183.08 335.379C184.813 334.875 197.267 333.629 198.192 333.867C198.528 333.953 198.801 333.159 198.801 332.103C198.801 330.282 198.626 330.217 195.352 330.851C193.456 331.218 190.564 331.534 188.925 331.553C185.606 331.593 185.574 331.529 184.54 322.459C184.06 318.247 183.822 317.793 182.094 317.793C180.457 317.793 180.233 318.117 180.547 320.025ZM169.066 323.029C171.739 325.507 171.807 328.313 169.252 330.714C163.24 336.362 152.747 328.883 158.547 323.083C161.336 320.293 166.088 320.269 169.066 323.029Z" fill="#BCBEC0" fill-opacity="0.21"/>
</svg>