<svg width="172" height="66" viewBox="0 0 172 66" fill="none" xmlns="http://www.w3.org/2000/svg">
<g clip-path="url(#clip0_5609_20324)">
<path d="M32.655 58.9343V57.2765C32.655 53.1242 30.4273 51.0473 25.9719 51.0459H24.6788C23.208 51.0459 22.4726 50.3828 22.4726 49.0565V47.3987C22.4726 46.0741 23.208 45.411 24.6788 45.4093H32.4428V41.1802H24.6788C20.2101 41.1802 17.977 43.2544 17.9795 47.4028V49.0607C17.9795 53.2144 20.2126 55.2912 24.6788 55.2912H25.9719C27.4258 55.2912 28.1531 55.9544 28.1536 57.2806V58.9384C28.1536 60.2647 27.4264 60.9278 25.9719 60.9278H18.1917V65.1582H25.9719C30.424 65.1582 32.6517 63.084 32.655 58.9355" fill="white"/>
<path d="M6.80826 65.1582H9.3207C13.7811 65.1582 16.0142 63.084 16.02 58.9355V41.1802H11.5186V58.9343C11.5186 60.2606 10.7833 60.9237 9.32194 60.9237H6.80826C5.33776 60.9237 4.60237 60.2606 4.6021 58.9343V41.1802H0.109375V58.9343C0.109375 63.088 2.34234 65.1622 6.80826 65.157" fill="white"/>
<path d="M39.4258 55.2898H43.2632C47.7151 55.2898 49.9428 53.213 49.9464 49.0593V47.4015C49.9464 43.2486 47.7186 41.1745 43.2632 41.1792H34.9326V65.1581H39.4258V55.2898ZM39.4258 45.4146H43.2632C44.7166 45.4146 45.444 46.0777 45.4453 47.4039V49.0618C45.4453 50.388 44.718 51.0512 43.2632 51.0512H39.4258V45.4146Z" fill="white"/>
<path d="M71.3383 18.8589H53.6592V65.2591H62.3545V46.1642H71.3383C79.9551 46.1642 84.2663 42.1451 84.2719 34.1068V30.9006C84.2719 22.8626 79.9607 18.8487 71.3383 18.8589ZM75.5608 34.1068C75.5608 36.6715 74.1533 37.9538 71.3383 37.9538H62.3545V27.0536H71.3383C74.1533 27.0536 75.5608 28.3359 75.5608 30.9006V34.1068Z" fill="#FBFCFF"/>
<path d="M117.512 34.1068V30.9006C117.512 22.8626 113.2 18.8487 104.578 18.8589H86.6406V65.2591H95.3355V46.1642H101.153L109.113 65.2591H117.965L109.848 45.8828C114.947 45.2415 117.501 41.3162 117.512 34.1068ZM108.174 34.1068C108.174 36.6715 106.766 37.9538 103.951 37.9538H94.7089V27.0536H103.951C106.766 27.0536 108.173 28.3359 108.174 30.9006V34.1068Z" fill="#FBFCFF"/>
<path d="M137.768 18.8916H133.318C124.725 18.8916 120.432 22.8797 120.438 30.8558V53.0293C120.438 61.0145 124.731 65.0025 133.318 64.9934H137.768C146.343 64.9934 150.637 61.0054 150.649 53.0293V30.8558C150.649 22.8705 146.355 18.8825 137.768 18.8916ZM141.995 53.0288C141.995 55.5769 140.581 56.851 137.768 56.851H133.318C130.49 56.851 129.076 55.5769 129.076 53.0288V30.8554C129.076 28.3089 130.49 27.0349 133.318 27.0332H137.768C140.578 27.0332 141.995 28.3073 141.995 30.8554V53.0288Z" fill="#FBFCFF"/>
<path d="M31.0928 18.8047V38.9991H44.2771V35.187H35.0193V18.8047H31.0928Z" fill="white"/>
<path d="M49.946 18.8179H45.7832V39.0123H49.946V18.8179Z" fill="white"/>
<path d="M3.78471 30.6874H8.63055C12.3811 30.6874 14.2575 28.9382 14.2597 25.4399V24.0441C14.2597 20.5458 12.3833 18.7988 8.63055 18.8032H0.00195312V38.9981H3.78637L3.78471 30.6874ZM3.78471 22.3705H8.63055C9.85569 22.3705 10.4683 22.9286 10.4683 24.0449V25.4399C10.4683 26.5565 9.85569 27.1146 8.63055 27.1144H3.78471V22.3705Z" fill="white"/>
<path d="M23.5884 38.9981C27.3442 38.9981 29.2251 37.2513 29.2309 33.7577V24.044C29.2309 20.5466 27.35 18.7996 23.5884 18.8032H21.6405C17.8764 18.8032 15.9956 20.5502 15.998 24.044V33.7577C15.998 37.2557 17.8789 39.0025 21.6405 38.9981H23.5884ZM19.7812 33.7577V24.044C19.7812 22.9283 20.4006 22.3702 21.6392 22.3696H23.5872C24.8181 22.3696 25.4386 22.9275 25.4386 24.044V33.7577C25.4386 34.8734 24.8169 35.4317 23.5872 35.4317H21.6392C20.4006 35.4317 19.7812 34.8737 19.7812 33.7577Z" fill="white"/>
<path fill-rule="evenodd" clip-rule="evenodd" d="M160.106 13.485C160.094 12.1811 159.179 11.1093 157.36 11.2142H140.664C139.115 11.1794 139.258 9.37399 139.647 9.11246C136.487 12.1654 147.965 1.02639 148.167 0.831595C148.97 0.0329352 149.827 0.0607038 150.369 0.0370797C156.568 0.0234026 163.266 0.0122123 169.466 -0.00146484C171.281 -0.00146484 171.999 1.53203 171.999 3.70172L171.969 16.4218C171.999 18.6123 170.963 19.9348 170.327 20.5826L161.888 30.518C161.329 31.339 160.264 31.1886 160.299 30.0554L160.106 13.485Z" fill="white"/>
</g>
<defs>
<clipPath id="clip0_5609_20324">
<rect width="172" height="65.2597" fill="white"/>
</clipPath>
</defs>
</svg>