<svg width="164" height="62" viewBox="0 0 164 62" fill="none" xmlns="http://www.w3.org/2000/svg">
<path fill-rule="evenodd" clip-rule="evenodd" d="M152.66 12.8126C152.649 11.5738 151.776 10.5556 150.042 10.6552H134.122C132.646 10.6221 132.782 8.90697 133.152 8.65852C130.139 11.5589 141.084 0.976495 141.277 0.791433C142.042 0.0326811 142.86 0.0590622 143.376 0.0366186C149.287 0.0236249 155.673 0.0129937 161.585 0C163.316 0 164 1.45687 164 3.51814L163.972 15.6027C164 17.6836 163.012 18.9401 162.406 19.5555L154.36 28.9944C153.826 29.7744 152.811 29.6315 152.845 28.555L152.66 12.8126Z" fill="#FF8116"/>
<path d="M131.359 17.9497H127.117C118.923 17.9497 114.829 21.7385 114.835 29.316V50.3815C114.835 57.9678 118.929 61.7565 127.117 61.7479H131.359C139.536 61.7479 143.63 57.9591 143.642 50.3815V29.316C143.642 21.7298 139.547 17.9411 131.359 17.9497ZM135.39 50.3811C135.39 52.8019 134.041 54.0123 131.359 54.0123H127.117C124.42 54.0123 123.072 52.8019 123.072 50.3811V29.3156C123.072 26.8965 124.42 25.6861 127.117 25.6845H131.359C134.039 25.6845 135.39 26.8949 135.39 29.3156V50.3811Z" fill="#0045A5"/>
<path d="M112.045 32.4047V29.3587C112.045 21.7223 107.934 17.909 99.7126 17.9187H82.6094V62.0004H90.9V43.8596H96.4468L104.037 62.0004H112.477L104.738 43.5923C109.599 42.983 112.035 39.2538 112.045 32.4047ZM103.141 32.4047C103.141 34.8412 101.799 36.0595 99.115 36.0595H90.3024V25.7039H99.115C101.799 25.7039 103.141 26.9222 103.141 29.3587V32.4047Z" fill="#0045A5"/>
<path d="M68.0191 17.9187H51.1621V62.0004H59.4531V43.8596H68.0191C76.2352 43.8596 80.346 40.0413 80.3512 32.4047V29.3587C80.3512 21.7223 76.2405 17.909 68.0191 17.9187ZM72.0452 32.4047C72.0452 34.8412 70.7032 36.0595 68.0191 36.0595H59.4531V25.7039H68.0191C70.7032 25.7039 72.0452 26.9222 72.0452 29.3587V32.4047Z" fill="#0045A5"/>
<path d="M37.5908 52.5293H41.2498C45.4947 52.5293 47.6188 50.5563 47.6222 46.6101V45.0351C47.6222 41.0898 45.4981 39.1193 41.2498 39.1238H33.3066V61.9045H37.5908V52.5293ZM37.5908 43.1475H41.2498C42.6356 43.1475 43.3292 43.7775 43.3305 45.0375V46.6125C43.3305 47.8725 42.6369 48.5025 41.2498 48.5025H37.5908V43.1475Z" fill="#FF8116"/>
<path d="M31.1357 55.9915V54.4165C31.1357 50.4717 29.0115 48.4986 24.7633 48.4973H23.5303C22.128 48.4973 21.4268 47.8673 21.4268 46.6073V45.0323C21.4268 43.7739 22.128 43.1439 23.5303 43.1423H30.9333V39.1245H23.5303C19.2695 39.1245 17.1402 41.0951 17.1426 45.0362V46.6112C17.1426 50.5574 19.2718 52.5304 23.5303 52.5304H24.7633C26.1496 52.5304 26.843 53.1604 26.8436 54.4204V55.9954C26.8436 57.2554 26.1502 57.8854 24.7633 57.8854H17.3449V61.9044H24.7633C29.0084 61.9044 31.1325 59.9338 31.1357 55.9927" fill="#FF8116"/>
<path d="M6.49088 61.9044H8.88649C13.1395 61.9044 15.2687 59.9338 15.2743 55.9927V39.1245H10.9822V55.9915C10.9822 57.2515 10.2811 57.8815 8.88768 57.8815H6.49088C5.08877 57.8815 4.38758 57.2515 4.38732 55.9915V39.1245H0.103516V55.9915C0.103516 59.9376 2.23264 61.9082 6.49088 61.9032" fill="#FF8116"/>
<path d="M47.6216 17.8792H43.6523V37.0645H47.6216V17.8792Z" fill="#FF8116"/>
<path d="M29.6455 17.8665V37.0518H42.2167V33.4301H33.3895V17.8665H29.6455Z" fill="#FF8116"/>
<path d="M22.4894 37.0505C26.0705 37.0505 27.8639 35.391 27.8694 32.072V22.8437C27.8694 19.521 26.0761 17.8613 22.4894 17.8648H20.632C17.0429 17.8648 15.2496 19.5244 15.252 22.8437V32.072C15.252 35.3952 17.0453 37.0547 20.632 37.0505H22.4894ZM18.8592 32.072V22.8437C18.8592 21.7837 19.4497 21.2535 20.6308 21.253H22.4882C23.6619 21.253 24.2535 21.7829 24.2535 22.8437V32.072C24.2535 33.1319 23.6607 33.6623 22.4882 33.6623H20.6308C19.4497 33.6623 18.8592 33.1322 18.8592 32.072Z" fill="#FF8116"/>
<path d="M3.60685 29.1551H8.22734C11.8035 29.1551 13.5926 27.4933 13.5947 24.1698V22.8437C13.5947 19.5202 11.8056 17.8606 8.22734 17.8648H0V37.0505H3.60843L3.60685 29.1551ZM3.60685 21.2537H8.22734C9.39551 21.2537 9.97959 21.784 9.97959 22.8445V24.1698C9.97959 25.2306 9.39551 25.7608 8.22734 25.7606H3.60685V21.2537Z" fill="#FF8116"/>
</svg>