<svg width="18" height="18" viewBox="0 0 18 18" fill="none" xmlns="http://www.w3.org/2000/svg">
<path d="M5.1075 0.16425C5.21292 0.0590974 5.35573 3.16338e-05 5.50463 0L12.4954 0C12.6443 3.16338e-05 12.7871 0.0590974 12.8925 0.16425L17.8358 5.1075C17.9409 5.21292 18 5.35573 18 5.50463V12.4954C18 12.6443 17.9409 12.7871 17.8358 12.8925L12.8925 17.8358C12.7871 17.9409 12.6443 18 12.4954 18H5.50463C5.35573 18 5.21292 17.9409 5.1075 17.8358L0.16425 12.8925C0.0590974 12.7871 3.16338e-05 12.6443 0 12.4954L0 5.50463C3.16338e-05 5.35573 0.0590974 5.21292 0.16425 5.1075L5.1075 0.16425ZM5.7375 1.125L1.125 5.7375V12.2625L5.7375 16.875H12.2625L16.875 12.2625V5.7375L12.2625 1.125H5.7375Z" fill="#CB2626"/>
<path d="M7.87695 12.375C7.87695 12.2273 7.90605 12.081 7.96259 11.9445C8.01913 11.808 8.10199 11.684 8.20646 11.5795C8.31092 11.475 8.43494 11.3922 8.57143 11.3356C8.70793 11.2791 8.85422 11.25 9.00195 11.25C9.14969 11.25 9.29598 11.2791 9.43247 11.3356C9.56896 11.3922 9.69298 11.475 9.79745 11.5795C9.90191 11.684 9.98478 11.808 10.0413 11.9445C10.0979 12.081 10.127 12.2273 10.127 12.375C10.127 12.6734 10.0084 12.9595 9.79745 13.1705C9.58647 13.3815 9.30032 13.5 9.00195 13.5C8.70358 13.5 8.41744 13.3815 8.20646 13.1705C7.99548 12.9595 7.87695 12.6734 7.87695 12.375ZM7.9872 5.61938C7.97222 5.47746 7.98725 5.33396 8.0313 5.19822C8.07536 5.06247 8.14746 4.9375 8.24294 4.83142C8.33841 4.72534 8.45512 4.64052 8.58549 4.58245C8.71586 4.52439 8.85699 4.49438 8.9997 4.49438C9.14242 4.49438 9.28354 4.52439 9.41392 4.58245C9.54429 4.64052 9.661 4.72534 9.75647 4.83142C9.85194 4.9375 9.92405 5.06247 9.9681 5.19822C10.0122 5.33396 10.0272 5.47746 10.0122 5.61938L9.61845 9.56476C9.60522 9.71975 9.53431 9.86414 9.41973 9.96935C9.30515 10.0746 9.15526 10.1329 8.9997 10.1329C8.84415 10.1329 8.69426 10.0746 8.57968 9.96935C8.4651 9.86414 8.39418 9.71975 8.38095 9.56476L7.9872 5.61938Z" fill="#CB2626"/>
</svg>